<?xml version="1.0" encoding="UTF-8" standalone="no"?>
<!-- Created with Inkscape (http://www.inkscape.org/) -->

<svg
   width="48mm"
   height="48mm"
   viewBox="0 0 48 48"
   version="1.1"
   id="svg5"
   inkscape:version="1.2.2 (732a01da63, 2022-12-09)"
   sodipodi:docname="abs.svg"
   xml:space="preserve"
   xmlns:inkscape="http://www.inkscape.org/namespaces/inkscape"
   xmlns:sodipodi="http://sodipodi.sourceforge.net/DTD/sodipodi-0.dtd"
   xmlns="http://www.w3.org/2000/svg"
   xmlns:svg="http://www.w3.org/2000/svg"><sodipodi:namedview
     id="namedview7"
     pagecolor="#ffffff"
     bordercolor="#000000"
     borderopacity="0.25"
     inkscape:showpageshadow="2"
     inkscape:pageopacity="0.0"
     inkscape:pagecheckerboard="0"
     inkscape:deskcolor="#d1d1d1"
     inkscape:document-units="mm"
     showgrid="false"
     inkscape:zoom="3.9710673"
     inkscape:cx="62.451725"
     inkscape:cy="84.863835"
     inkscape:window-width="1920"
     inkscape:window-height="986"
     inkscape:window-x="-11"
     inkscape:window-y="-11"
     inkscape:window-maximized="1"
     inkscape:current-layer="layer1" /><defs
     id="defs2"><rect
       x="9.0655727"
       y="-8.0582867"
       width="168.57222"
       height="126.91802"
       id="rect1914" /><inkscape:path-effect
       effect="powerclip"
       id="path-effect1971"
       is_visible="true"
       lpeversion="1"
       inverse="true"
       flatten="false"
       hide_clip="false"
       message="クリップをパスに変換した後に残らない場合には&lt;b&gt;フィル/ストローク&lt;/b&gt;ダイアログのフィルルールで evenodd を使用します。" /><inkscape:path-effect
       effect="powerclip"
       id="path-effect1810"
       is_visible="true"
       lpeversion="1"
       inverse="true"
       flatten="false"
       hide_clip="false"
       message="クリップをパスに変換した後に残らない場合には&lt;b&gt;フィル/ストローク&lt;/b&gt;ダイアログのフィルルールで evenodd を使用します。" /><clipPath
       clipPathUnits="userSpaceOnUse"
       id="clipPath1967-5"><circle
         style="display:none;fill:#e3dbdb;stroke:none;stroke-width:0.928616;stroke-linejoin:round"
         id="circle1969-4"
         cx="35.586231"
         cy="129.65764"
         r="21" /><path
         id="lpe_path-effect1971-7"
         style="fill:#e3dbdb;stroke:none;stroke-width:0.928616;stroke-linejoin:round"
         class="powerclip"
         d="m 30.586231,107.68708 h 34 v 43.94112 h -34 z m 26,21.97056 a 21,21 0 0 0 -21,-21 21,21 0 0 0 -21,21 21,21 0 0 0 21,21 21,21 0 0 0 21,-21 z" /></clipPath><inkscape:path-effect
       effect="powerclip"
       id="path-effect1971-0"
       is_visible="true"
       lpeversion="1"
       inverse="true"
       flatten="false"
       hide_clip="false"
       message="クリップをパスに変換した後に残らない場合には&lt;b&gt;フィル/ストローク&lt;/b&gt;ダイアログのフィルルールで evenodd を使用します。" /><clipPath
       clipPathUnits="userSpaceOnUse"
       id="clipath_lpe_path-effect1971-0"><path
         id="lpe_path-effect1971-0"
         style="fill:#e3dbdb;stroke:none;stroke-width:0.928616;stroke-linejoin:round"
         class="powerclip"
         d="m 30.586231,107.68708 h 34 v 43.94112 h -34 z m 26,21.97056 a 21,21 0 0 0 -21,-21 21,21 0 0 0 -21,21 21,21 0 0 0 21,21 21,21 0 0 0 21,-21 z" /></clipPath></defs><g
     inkscape:label="Layer 1"
     inkscape:groupmode="layer"
     id="layer1"
     transform="translate(-78.800699,-115.70863)"><path
       id="path234"
       clip-path="none"
       style="font-size:42.6667px;font-family:'Leelawadee UI';-inkscape-font-specification:'Leelawadee UI';white-space:pre;fill:#ff6600;stroke:none;stroke-width:0.79596;stroke-linejoin:round"
       d="M 105.00009 130.50015 A 18 18 0 0 0 87.000151 148.50009 A 18 18 0 0 0 105.00009 166.50002 A 18 18 0 0 0 123.00002 148.50009 A 18 18 0 0 0 105.00009 130.50015 z M 105.00009 133.49997 A 15 15 0 0 1 120.0002 148.50009 A 15 15 0 0 1 105.00009 163.5002 A 15 15 0 0 1 89.999968 148.50009 A 15 15 0 0 1 105.00009 133.49997 z "
       transform="translate(-2.1993013,-8.7913711)" /><path
       id="path234-1-1"
       clip-path="none"
       style="font-size:42.6667px;font-family:'Leelawadee UI';-inkscape-font-specification:'Leelawadee UI';white-space:pre;fill:#ff6600;stroke:none;stroke-width:1.06128;stroke-linejoin:round"
       d="M 52.556857 112.68718 L 50.434506 114.80954 A 21 21 0 0 1 56.586068 129.65772 A 21 21 0 0 1 50.428305 144.49971 L 52.556857 146.62826 A 24 24 0 0 0 59.586402 129.65772 A 24 24 0 0 0 52.556857 112.68718 z "
       transform="translate(67.214468,10.050991)" /><path
       id="path234-1-1-7"
       clip-path="none"
       style="font-size:42.6667px;font-family:'Leelawadee UI';-inkscape-font-specification:'Leelawadee UI';white-space:pre;fill:#ff6600;stroke:none;stroke-width:1.06128;stroke-linejoin:round"
       d="m 85.830239,122.7381 2.12235,2.12236 a 21,21 0 0 0 -6.15156,14.84818 21,21 0 0 0 6.15777,14.84199 l -2.12856,2.12853 a 24,24 0 0 1 -7.02954,-16.97052 24,24 0 0 1 7.02954,-16.97054 z" /><path
       d="m 96.937922,145.66306 -1.170912,-3.56098 h -3.2046 l -1.170912,3.56098 h -1.725554 l 3.635989,-11.90885 h 1.725554 l 3.635989,11.90885 z m -1.6023,-5.07877 -1.170912,-4.14475 -1.170911,4.14475 z"
       style="font-size:42.6667px;font-family:HGPGothicE;-inkscape-font-specification:HGPGothicE;white-space:pre;fill:#ff6600;stroke-width:1.36017;stroke-linejoin:round"
       id="path2077" /><path
       d="m 99.684367,145.72143 v -12.0256 h 3.794483 c 1.12862,0 2.00427,0.31134 2.62695,0.93403 0.50593,0.50593 0.7589,1.50347 0.7589,2.35966 0,1.05078 -0.3308,2.04848 -0.9924,2.59333 0.93402,0.6616 1.40104,1.45692 1.40104,2.81905 0,1.16753 -0.31135,1.76282 -0.93403,2.3855 -0.62269,0.62268 -1.57617,0.93403 -2.86046,0.93403 z m 5.545783,-8.67353 c 0,-0.4281 -0.13621,-1.09484 -0.40863,-1.36726 -0.38918,-0.38918 -0.91457,-0.58377 -1.57618,-0.58377 h -2.04318 v 3.78546 h 1.86805 c 0.77836,0 1.36213,-0.19459 1.7513,-0.58377 0.27243,-0.27242 0.40864,-0.82257 0.40864,-1.25066 z m 0.40864,5.29562 c 0,-0.70052 -0.17513,-1.00937 -0.52539,-1.35963 -0.46702,-0.46701 -1.12862,-0.70052 -1.98481,-0.70052 h -1.92643 v 4.03702 h 1.98481 c 0.89511,0 1.53725,-0.19459 1.92643,-0.58377 0.35026,-0.35026 0.52539,-0.61474 0.52539,-1.3931 z"
       style="font-size:42.6667px;font-family:HGPGothicE;-inkscape-font-specification:HGPGothicE;white-space:pre;fill:#ff6600;stroke-width:1.32382;stroke-linejoin:round"
       id="path2079"
       sodipodi:nodetypes="ccssscssscsssccssssssccsss" /><path
       d="m 114.08882,137.72383 q -0.0637,-1.40104 -0.76412,-2.04319 -0.50941,-0.46701 -1.27354,-0.46701 -0.8278,0 -1.27353,0.40864 -0.50942,0.46701 -0.50942,0.93402 0,1.10916 2.41972,2.15994 3.24752,1.45942 3.24752,3.79449 0,1.40104 -0.89147,2.21831 -1.08251,0.9924 -2.80179,0.9924 -1.9103,0 -2.92913,-1.10915 -1.01883,-1.10916 -1.01883,-3.32747 h 1.78295 q -0.0637,2.91883 2.16501,2.91883 1.91031,0 1.91031,-1.80968 0,-1.22591 -2.61075,-2.45182 -1.6556,-0.75889 -2.29237,-1.34266 -0.76412,-0.70052 -0.76412,-1.92643 0,-1.10916 1.01883,-2.04319 1.01883,-0.93402 2.61075,-0.93402 1.59192,0 2.4834,0.81727 1.08251,0.9924 1.14618,3.21072 z"
       style="font-size:42.6667px;font-family:HGPGothicE;-inkscape-font-specification:HGPGothicE;white-space:pre;fill:#ff6600;stroke-width:1.38261;stroke-linejoin:round"
       id="path2081" /></g></svg>
