<?xml version="1.0" encoding="UTF-8" standalone="no"?>
<!-- Created with Inkscape (http://www.inkscape.org/) -->

<svg
   width="48mm"
   height="48mm"
   viewBox="0 0 48 48"
   version="1.1"
   id="svg5"
   inkscape:version="1.2.2 (732a01da63, 2022-12-09)"
   sodipodi:docname="abs.svg"
   xml:space="preserve"
   xmlns:inkscape="http://www.inkscape.org/namespaces/inkscape"
   xmlns:sodipodi="http://sodipodi.sourceforge.net/DTD/sodipodi-0.dtd"
   xmlns="http://www.w3.org/2000/svg"
   xmlns:svg="http://www.w3.org/2000/svg"><sodipodi:namedview
     id="namedview7"
     pagecolor="#ffffff"
     bordercolor="#000000"
     borderopacity="0.25"
     inkscape:showpageshadow="2"
     inkscape:pageopacity="0.0"
     inkscape:pagecheckerboard="0"
     inkscape:deskcolor="#d1d1d1"
     inkscape:document-units="mm"
     showgrid="false"
     inkscape:zoom="2.8079686"
     inkscape:cx="83.334265"
     inkscape:cy="75.49942"
     inkscape:window-width="1920"
     inkscape:window-height="986"
     inkscape:window-x="-11"
     inkscape:window-y="1086"
     inkscape:window-maximized="1"
     inkscape:current-layer="text1912" /><defs
     id="defs2"><rect
       x="9.0655727"
       y="-8.0582867"
       width="168.57222"
       height="126.91802"
       id="rect1914" /><inkscape:path-effect
       effect="powerclip"
       id="path-effect1971"
       is_visible="true"
       lpeversion="1"
       inverse="true"
       flatten="false"
       hide_clip="false"
       message="クリップをパスに変換した後に残らない場合には&lt;b&gt;フィル/ストローク&lt;/b&gt;ダイアログのフィルルールで evenodd を使用します。" /><inkscape:path-effect
       effect="powerclip"
       id="path-effect1810"
       is_visible="true"
       lpeversion="1"
       inverse="true"
       flatten="false"
       hide_clip="false"
       message="クリップをパスに変換した後に残らない場合には&lt;b&gt;フィル/ストローク&lt;/b&gt;ダイアログのフィルルールで evenodd を使用します。" /><clipPath
       clipPathUnits="userSpaceOnUse"
       id="clipPath1806"><circle
         style="display:none;fill:#ffaaaa;stroke:none;stroke-width:0.6633;stroke-linejoin:round"
         id="circle1808"
         cx="105"
         cy="148.5"
         r="15"
         d="m 120,148.5 a 15,15 0 0 1 -15,15 15,15 0 0 1 -15,-15 15,15 0 0 1 15,-15 15,15 0 0 1 15,15 z" /><path
         id="lpe_path-effect1810"
         style="fill:#ffaaaa;stroke:none;stroke-width:0.6633;stroke-linejoin:round"
         class="powerclip"
         d="m 82,125.5 h 46 v 46 H 82 Z m 38,23 a 15,15 0 0 0 -15,-15 15,15 0 0 0 -15,15 15,15 0 0 0 15,15 15,15 0 0 0 15,-15 z" /></clipPath><clipPath
       clipPathUnits="userSpaceOnUse"
       id="clipPath1967"><circle
         style="display:none;fill:#e3dbdb;stroke:none;stroke-width:0.928616;stroke-linejoin:round"
         id="circle1969"
         cx="35.586231"
         cy="129.65764"
         r="21"
         d="m 56.586231,129.65764 a 21,21 0 0 1 -21,21 21,21 0 0 1 -21,-21 21,21 0 0 1 21,-21 21,21 0 0 1 21,21 z" /><path
         id="lpe_path-effect1971"
         style="fill:#e3dbdb;stroke:none;stroke-width:0.928616;stroke-linejoin:round"
         class="powerclip"
         d="m 30.586231,107.68708 h 34 v 43.94112 h -34 z m 26,21.97056 a 21,21 0 0 0 -21,-21 21,21 0 0 0 -21,21 21,21 0 0 0 21,21 21,21 0 0 0 21,-21 z" /></clipPath><clipPath
       clipPathUnits="userSpaceOnUse"
       id="clipPath1967-5"><circle
         style="display:none;fill:#e3dbdb;stroke:none;stroke-width:0.928616;stroke-linejoin:round"
         id="circle1969-4"
         cx="35.586231"
         cy="129.65764"
         r="21" /><path
         id="lpe_path-effect1971-7"
         style="fill:#e3dbdb;stroke:none;stroke-width:0.928616;stroke-linejoin:round"
         class="powerclip"
         d="m 30.586231,107.68708 h 34 v 43.94112 h -34 z m 26,21.97056 a 21,21 0 0 0 -21,-21 21,21 0 0 0 -21,21 21,21 0 0 0 21,21 21,21 0 0 0 21,-21 z" /></clipPath><inkscape:path-effect
       effect="powerclip"
       id="path-effect1971-0"
       is_visible="true"
       lpeversion="1"
       inverse="true"
       flatten="false"
       hide_clip="false"
       message="クリップをパスに変換した後に残らない場合には&lt;b&gt;フィル/ストローク&lt;/b&gt;ダイアログのフィルルールで evenodd を使用します。" /><clipPath
       clipPathUnits="userSpaceOnUse"
       id="clipath_lpe_path-effect1971-0"><circle
         style="display:none;fill:#e3dbdb;stroke:none;stroke-width:0.928616;stroke-linejoin:round"
         id="circle2069"
         cx="35.586231"
         cy="129.65764"
         r="21"
         d="m 56.586231,129.65764 a 21,21 0 0 1 -21,21 21,21 0 0 1 -21,-21 21,21 0 0 1 21,-21 21,21 0 0 1 21,21 z" /><path
         id="lpe_path-effect1971-0"
         style="fill:#e3dbdb;stroke:none;stroke-width:0.928616;stroke-linejoin:round"
         class="powerclip"
         d="m 30.586231,107.68708 h 34 v 43.94112 h -34 z m 26,21.97056 a 21,21 0 0 0 -21,-21 21,21 0 0 0 -21,21 21,21 0 0 0 21,21 21,21 0 0 0 21,-21 z" /></clipPath></defs><g
     inkscape:label="Layer 1"
     inkscape:groupmode="layer"
     id="layer1"
     transform="translate(-78.800699,-115.70863)"><g
       aria-label="ABS"
       transform="matrix(0.35025985,0,0,0.35025985,85.614696,127.54123)"
       id="text1912"
       style="font-size:42.6667px;font-family:'Leelawadee UI';-inkscape-font-specification:'Leelawadee UI';white-space:pre;shape-inside:url(#rect1914);fill:#ff6600;stroke-width:3.77953;stroke-linejoin:round"><g
         id="g299"
         transform="translate(0,17.130134)"><path
           style="fill:#ff6600;stroke:none;stroke-width:0.79596;stroke-linejoin:round"
           id="path234"
           clip-path="url(#clipPath1806)"
           inkscape:path-effect="#path-effect1810"
           sodipodi:type="arc"
           sodipodi:cx="105"
           sodipodi:cy="148.5"
           sodipodi:rx="18"
           sodipodi:ry="18"
           d="m 123,148.5 a 18,18 0 0 1 -18,18 18,18 0 0 1 -18,-18 18,18 0 0 1 18,-18 18,18 0 0 1 18,18 z"
           transform="matrix(2.8550232,0,0,2.8550232,-250.711,-406.36287)" /><path
           style="fill:#ff6600;stroke:none;stroke-width:1.06128;stroke-linejoin:round"
           id="path234-1-1"
           sodipodi:type="arc"
           sodipodi:cx="35.586231"
           sodipodi:cy="129.65764"
           sodipodi:rx="24"
           sodipodi:ry="24"
           sodipodi:start="5.4977871"
           sodipodi:end="0.78539816"
           sodipodi:arc-type="slice"
           d="m 52.556793,112.68708 a 24,24 0 0 1 7.029438,16.97056 24,24 0 0 1 -7.029437,16.97056 L 35.586231,129.65764 Z"
           clip-path="url(#clipPath1967)"
           inkscape:path-effect="#path-effect1971"
           transform="matrix(2.8550232,0,0,2.8550232,-52.533078,-352.56749)" /><path
           style="fill:#ff6600;stroke:none;stroke-width:1.06128;stroke-linejoin:round"
           id="path234-1-1-8"
           sodipodi:type="arc"
           sodipodi:cx="35.586231"
           sodipodi:cy="129.65764"
           sodipodi:rx="24"
           sodipodi:ry="24"
           sodipodi:start="5.4977871"
           sodipodi:end="0.78539816"
           sodipodi:arc-type="slice"
           d="m 52.556793,112.68708 a 24,24 0 0 1 7.029438,16.97056 24,24 0 0 1 -7.029437,16.97056 L 35.586231,129.65764 Z"
           clip-path="url(#clipath_lpe_path-effect1971-0)"
           inkscape:path-effect="#path-effect1971-0"
           transform="matrix(-2.8550232,0,0,2.8550232,150.66595,-352.56748)" /><path
           d="M 32.328073,34.608105 28.985093,24.44143 h -9.149208 l -3.34298,10.166675 H 11.566408 L 21.947241,0.60807937 h 4.926496 L 37.25457,34.608105 Z M 27.753469,20.108094 24.410489,8.2747518 21.067509,20.108094 Z"
           style="font-family:HGPGothicE;-inkscape-font-specification:HGPGothicE;stroke-width:3.88332"
           id="path2077" /><path
           d="M 40.169236,34.774749 V 0.44139091 h 10.83334 c 3.222226,0 5.722228,0.88888949 7.500006,2.66666859 1.444446,1.4444455 2.166669,4.2924545 2.166669,6.7369008 0,3.0000017 -0.944446,5.8484527 -2.833335,7.4040097 2.666669,1.88889 4.000003,4.159554 4.000003,8.048445 0,3.333336 -0.888891,5.032887 -2.666669,6.810666 -1.777779,1.777779 -4.500003,2.666668 -8.166674,2.666668 z M 56.002581,10.011627 c 0,-1.222223 -0.388889,-3.1257869 -1.166667,-3.9035652 C 53.724802,4.9969499 52.224801,4.4413939 50.33591,4.4413939 H 44.502573 V 15.248969 h 5.333337 c 2.222224,0 3.888892,-0.555556 5.000003,-1.666668 0.777778,-0.777779 1.166667,-2.348451 1.166668,-3.570674 z m 1.166668,15.119122 c 0,-2.000002 -0.5,-2.881776 -1.500001,-3.881776 -1.333335,-1.333334 -3.222225,-2.000001 -5.666671,-2.000001 h -5.500004 v 11.525775 h 5.66667 c 2.555558,0 4.388894,-0.555556 5.500006,-1.666668 1,-1.000001 1.5,-1.755107 1.5,-3.97733 z"
           style="font-family:HGPGothicE;-inkscape-font-specification:HGPGothicE"
           id="path2079"
           sodipodi:nodetypes="ccssscssscsssccssssssccsss" /><path
           d="M 81.294295,11.941421 Q 81.112496,7.9414182 79.112706,6.1080835 77.658315,4.7747491 75.476727,4.7747491 q -2.363388,0 -3.63598,1.1666676 -1.454393,1.3333343 -1.454393,2.6666686 0,3.1666687 6.908362,6.1666717 9.27175,4.166669 9.27175,10.833341 0,4.000003 -2.545186,6.333338 -3.090584,2.833335 -7.999156,2.833335 -5.453971,0 -8.362754,-3.166669 -2.908784,-3.166669 -2.908784,-9.500007 h 5.090372 q -0.1818,8.33334 6.181166,8.33334 5.45397,0 5.45397,-5.166671 0,-3.500002 -7.45376,-7.000005 -4.726773,-2.166668 -6.544763,-3.833336 -2.181589,-2.000001 -2.181589,-5.5000041 0,-3.166669 2.908785,-5.8333377 2.908784,-2.66666862 7.453758,-2.66666862 4.544976,0 7.090162,2.33333512 3.090583,2.8333354 3.272381,9.1666733 z"
           style="font-family:HGPGothicE;-inkscape-font-specification:HGPGothicE;stroke-width:3.94738"
           id="path2081" /></g></g></g></svg>
