<?xml version="1.0" encoding="UTF-8" standalone="no"?>
<!-- Created with Inkscape (http://www.inkscape.org/) -->

<svg
   width="48mm"
   height="48mm"
   viewBox="0 0 48 48"
   version="1.1"
   id="svg793"
   xml:space="preserve"
   inkscape:version="1.2.2 (732a01da63, 2022-12-09)"
   sodipodi:docname="adaptivecruisecontrol.svg"
   xmlns:inkscape="http://www.inkscape.org/namespaces/inkscape"
   xmlns:sodipodi="http://sodipodi.sourceforge.net/DTD/sodipodi-0.dtd"
   xmlns="http://www.w3.org/2000/svg"
   xmlns:svg="http://www.w3.org/2000/svg"><sodipodi:namedview
     id="namedview795"
     pagecolor="#ffffff"
     bordercolor="#000000"
     borderopacity="0.25"
     inkscape:showpageshadow="2"
     inkscape:pageopacity="0.0"
     inkscape:pagecheckerboard="0"
     inkscape:deskcolor="#d1d1d1"
     inkscape:document-units="mm"
     showgrid="false"
     inkscape:zoom="2.8079686"
     inkscape:cx="100.07235"
     inkscape:cy="123.93301"
     inkscape:window-width="1920"
     inkscape:window-height="986"
     inkscape:window-x="-11"
     inkscape:window-y="1086"
     inkscape:window-maximized="1"
     inkscape:current-layer="layer1" /><defs
     id="defs790" /><g
     inkscape:label="Layer 1"
     inkscape:groupmode="layer"
     id="layer1"><g
       id="g1478"
       transform="matrix(0.87260023,0,0,0.87260023,2.9135822,3.0866048)"><path
         id="rect990"
         style="fill:#ff6600;stroke-width:1.01992;stroke-linejoin:round"
         d="m 16.772103,6.3603353 -4.587317,0.033073 c -1.97106,0.1221704 -4.1265961,1.2478025 -5.2880493,5.4802857 -1.1156736,0 -2.1351954,-0.02129 -2.7155966,0.37207 -0.6262702,0.424447 -0.8773549,1.83359 -0.3818888,2.329057 0.1986492,0.198608 1.0190276,0.19172 2.2530924,0.19172 -0.3963695,3.591831 -0.539092,6.876076 1.1094931,7.989176 l 5.167e-4,3.739307 H 10.96884 v -3.739307 h 5.803263 1.813843 c 3.586088,-1.69346 6.889152,-1.991093 8.959143,-1.991093 0.34795,-1.555959 0.198727,-3.71492 -0.05323,-5.998083 1.234065,0 2.054444,0.0069 2.253092,-0.19172 0.495467,-0.495467 0.244382,-1.90461 -0.381888,-2.329057 -0.580401,-0.393359 -1.599924,-0.37207 -2.715597,-0.37207 C 25.486015,7.641211 23.33048,6.5155786 21.35942,6.3934082 Z m -0.960665,1.760616 c 0.321872,-9.99e-5 0.643516,5.168e-4 0.960665,5.168e-4 2.537194,0 5.359999,-0.041381 6.316927,0.5891113 1.016599,0.5869334 1.890596,3.2195806 2.44998,5.1118326 H 16.772103 8.0051961 C 8.5645801,11.93016 9.4385776,9.2975125 10.455176,8.7105794 11.292488,8.1588985 13.558332,8.1216506 15.811438,8.1209513 Z" /><path
         id="path1139"
         style="fill:#ff6600;stroke-width:0.903307;stroke-linejoin:round"
         d="m 26.234058,-22.470463 a 16.28487,16.28487 0 0 1 -8.391219,-2.669088 16.28487,16.28487 0 0 1 -7.088973,-16.433622 h 4.911328 v 1.338936 h -3.525367 a 14.727447,14.727447 0 0 0 1.068669,7.168038 l 2.982247,-1.454691 0.586528,1.203027 -2.998267,1.46296 a 14.727447,14.727447 0 0 0 3.953247,4.716508 l 7.072436,-10.100676 a 2.6234682,2.6234682 0 0 1 -0.636653,-1.71049 2.6234682,2.6234682 0 0 1 2.623096,-2.623612 2.6234682,2.6234682 0 0 1 2.623612,2.623612 2.6234682,2.6234682 0 0 1 -2.623612,2.623096 2.6234682,2.6234682 0 0 1 -0.882634,-0.154512 l -7.083805,10.116695 a 14.727447,14.727447 0 0 0 7.297229,2.321822 v -3.329513 h 1.338936 v 3.329513 a 14.727447,14.727447 0 0 0 7.006808,-2.145606 l -1.900143,-2.713529 1.096574,-0.767912 1.917712,2.739368 a 14.727447,14.727447 0 0 0 4.245736,-4.964038 l -3.002401,-1.463994 0.587045,-1.203544 2.983797,1.455725 a 14.727447,14.727447 0 0 0 1.046964,-7.128247 h -3.525366 v -1.338936 h 4.911328 a 16.28487,16.28487 0 0 1 -7.088973,16.433622 16.28487,16.28487 0 0 1 -9.505879,2.669088 z"
         transform="scale(1,-1)" /><path
         id="rect1411"
         style="fill:#ff6600;stroke-width:0.953821;stroke-linejoin:round"
         d="M 34.915538,17.007153 36.75771,24 l 6.998399,-1.820963 -2.680718,-1.568265 3.71765,-6.354774 -3.479135,-2.035353 -3.71765,6.354774 z" /></g></g></svg>
