<?xml version="1.0" encoding="UTF-8" standalone="no"?>
<!-- Created with Inkscape (http://www.inkscape.org/) -->

<svg
   width="48mm"
   height="48mm"
   viewBox="0 0 48 48"
   version="1.1"
   id="svg5"
   inkscape:version="1.2.2 (732a01da63, 2022-12-09)"
   sodipodi:docname="airbag.svg"
   xml:space="preserve"
   xmlns:inkscape="http://www.inkscape.org/namespaces/inkscape"
   xmlns:sodipodi="http://sodipodi.sourceforge.net/DTD/sodipodi-0.dtd"
   xmlns="http://www.w3.org/2000/svg"
   xmlns:svg="http://www.w3.org/2000/svg"><sodipodi:namedview
     id="namedview7"
     pagecolor="#ffffff"
     bordercolor="#000000"
     borderopacity="0.25"
     inkscape:showpageshadow="2"
     inkscape:pageopacity="0.0"
     inkscape:pagecheckerboard="0"
     inkscape:deskcolor="#d1d1d1"
     inkscape:document-units="mm"
     showgrid="false"
     inkscape:zoom="1.9855337"
     inkscape:cx="-45.327864"
     inkscape:cy="119.36338"
     inkscape:window-width="1920"
     inkscape:window-height="986"
     inkscape:window-x="-11"
     inkscape:window-y="1086"
     inkscape:window-maximized="1"
     inkscape:current-layer="text1912" /><defs
     id="defs2"><rect
       x="9.0655727"
       y="-8.0582867"
       width="168.57222"
       height="126.91802"
       id="rect1914" /><inkscape:path-effect
       effect="powerclip"
       id="path-effect1971"
       is_visible="true"
       lpeversion="1"
       inverse="true"
       flatten="false"
       hide_clip="false"
       message="クリップをパスに変換した後に残らない場合には&lt;b&gt;フィル/ストローク&lt;/b&gt;ダイアログのフィルルールで evenodd を使用します。" /><inkscape:path-effect
       effect="powerclip"
       id="path-effect1810"
       is_visible="true"
       lpeversion="1"
       inverse="true"
       flatten="false"
       hide_clip="false"
       message="クリップをパスに変換した後に残らない場合には&lt;b&gt;フィル/ストローク&lt;/b&gt;ダイアログのフィルルールで evenodd を使用します。" /><clipPath
       clipPathUnits="userSpaceOnUse"
       id="clipPath1806"><circle
         style="display:none;fill:#ffaaaa;stroke:none;stroke-width:0.6633;stroke-linejoin:round"
         id="circle1808"
         cx="105"
         cy="148.5"
         r="15" /></clipPath><clipPath
       clipPathUnits="userSpaceOnUse"
       id="clipPath1967"><circle
         style="display:none;fill:#e3dbdb;stroke:none;stroke-width:0.928616;stroke-linejoin:round"
         id="circle1969"
         cx="35.586231"
         cy="129.65764"
         r="21" /></clipPath><clipPath
       clipPathUnits="userSpaceOnUse"
       id="clipPath1967-5"><circle
         style="display:none;fill:#e3dbdb;stroke:none;stroke-width:0.928616;stroke-linejoin:round"
         id="circle1969-4"
         cx="35.586231"
         cy="129.65764"
         r="21" /><path
         id="lpe_path-effect1971-7"
         style="fill:#e3dbdb;stroke:none;stroke-width:0.928616;stroke-linejoin:round"
         class="powerclip"
         d="m 30.586231,107.68708 h 34 v 43.94112 h -34 z m 26,21.97056 a 21,21 0 0 0 -21,-21 21,21 0 0 0 -21,21 21,21 0 0 0 21,21 21,21 0 0 0 21,-21 z" /></clipPath><inkscape:path-effect
       effect="powerclip"
       id="path-effect1971-0"
       is_visible="true"
       lpeversion="1"
       inverse="true"
       flatten="false"
       hide_clip="false"
       message="クリップをパスに変換した後に残らない場合には&lt;b&gt;フィル/ストローク&lt;/b&gt;ダイアログのフィルルールで evenodd を使用します。" /><clipPath
       clipPathUnits="userSpaceOnUse"
       id="clipath_lpe_path-effect1971-0"><circle
         style="display:none;fill:#e3dbdb;stroke:none;stroke-width:0.928616;stroke-linejoin:round"
         id="circle2069"
         cx="35.586231"
         cy="129.65764"
         r="21" /></clipPath></defs><g
     inkscape:label="Layer 1"
     inkscape:groupmode="layer"
     id="layer1"
     transform="translate(-78.800699,-115.70863)"><g
       aria-label="ABS"
       transform="matrix(0.35025985,0,0,0.35025985,85.614696,127.54123)"
       id="text1912"
       style="font-size:42.6667px;font-family:'Leelawadee UI';-inkscape-font-specification:'Leelawadee UI';white-space:pre;shape-inside:url(#rect1914);fill:#ff6600;stroke-width:3.77953;stroke-linejoin:round"><g
         id="g2712"
         transform="translate(0.01175987,17.130139)"
         style="fill:#ff0000"><path
           id="rect2400"
           style="fill:#ff0000;stroke-width:2.85503"
           transform="rotate(31.663195)"
           d="m 67.283076,-39.411144 c 6.006888,0 10.734448,4.836846 10.842758,10.842757 L 78.737235,5.3344166 C 69.290369,-2.3820979 62.843138,-7.3223438 56.146272,-12.973548 c 0.291977,-1.205199 0.48837,-2.014635 0.517431,-3.847608 l -0.223381,-11.747231 c -0.114204,-6.005802 4.83587,-10.842757 10.842757,-10.842757 z"
           sodipodi:nodetypes="sscccsss" /><path
           id="rect2404"
           style="fill:#ff0000;stroke-width:2.92124"
           d="m 38.637291,26.961467 c 2.542107,6.990695 5.105351,13.974567 7.566618,20.994349 L 28.349356,41.524835 c -1.410369,-0.659339 -4.13108,-1.089416 -5.64202,1.139739 L 5.6421486,65.985566 c -2.3719366,3.241451 -6.8622807,3.991278 -10.1208307,1.642888 -3.2585491,-2.34839 -4.0148261,-6.879381 -1.6428878,-10.12083 L 16.606711,26.447544 c 2.371937,-3.24145 7.124804,-2.926898 7.124804,-2.926898 3.063172,-0.02199 13.767041,3.936715 14.905776,3.440821 z"
           sodipodi:nodetypes="ccccsssscc" /><path
           id="rect2407"
           style="fill:#ff0000;stroke-width:4.37892"
           d="m 42.591158,25.289204 c 2.750944,-1.294603 4.197963,-2.233485 6.760614,-3.823184 l 17.593694,47.532468 -8.138389,-0.0048 z"
           sodipodi:nodetypes="ccccc" /><path
           id="rect2432"
           style="fill:#ff0000;stroke-width:2.85503"
           d="M 84.599278,-0.14886692 105.59481,-12.501063 105.61601,-3.6586592 88.472513,6.4346292 C 87.6092,4.0262477 86.529612,1.7260037 84.599278,-0.14886692 Z"
           sodipodi:nodetypes="ccccc" /><circle
           style="fill:#ff0000;stroke-width:2.85503;stroke-linejoin:round"
           id="path2487"
           cx="31.928146"
           cy="-9.3017931"
           r="24.480555" /><circle
           style="font-size:42.6667px;font-family:'Leelawadee UI';-inkscape-font-specification:'Leelawadee UI';white-space:pre;shape-inside:url(#rect1914);fill:#ff0000;stroke-width:1.34908;stroke-linejoin:round"
           id="path2487-7"
           cx="75.508911"
           cy="-16.296238"
           r="11.567733" /></g></g></g></svg>
