<?xml version="1.0" encoding="UTF-8" standalone="no"?>
<!-- Created with Inkscape (http://www.inkscape.org/) -->

<svg
   width="48mm"
   height="48mm"
   viewBox="0 0 48 48"
   version="1.1"
   id="svg5"
   inkscape:version="1.2.2 (732a01da63, 2022-12-09)"
   sodipodi:docname="brakefailureyellow.svg"
   xml:space="preserve"
   xmlns:inkscape="http://www.inkscape.org/namespaces/inkscape"
   xmlns:sodipodi="http://sodipodi.sourceforge.net/DTD/sodipodi-0.dtd"
   xmlns="http://www.w3.org/2000/svg"
   xmlns:svg="http://www.w3.org/2000/svg"><sodipodi:namedview
     id="namedview7"
     pagecolor="#ffffff"
     bordercolor="#000000"
     borderopacity="0.25"
     inkscape:showpageshadow="2"
     inkscape:pageopacity="0.0"
     inkscape:pagecheckerboard="0"
     inkscape:deskcolor="#d1d1d1"
     inkscape:document-units="mm"
     showgrid="false"
     inkscape:zoom="1.4039843"
     inkscape:cx="99.003956"
     inkscape:cy="47.721331"
     inkscape:window-width="1920"
     inkscape:window-height="986"
     inkscape:window-x="-11"
     inkscape:window-y="1086"
     inkscape:window-maximized="1"
     inkscape:current-layer="layer1" /><defs
     id="defs2"><inkscape:path-effect
       effect="powerclip"
       id="path-effect1971"
       is_visible="true"
       lpeversion="1"
       inverse="true"
       flatten="false"
       hide_clip="false"
       message="クリップをパスに変換した後に残らない場合には&lt;b&gt;フィル/ストローク&lt;/b&gt;ダイアログのフィルルールで evenodd を使用します。" /><inkscape:path-effect
       effect="powerclip"
       id="path-effect1810"
       is_visible="true"
       lpeversion="1"
       inverse="true"
       flatten="false"
       hide_clip="false"
       message="クリップをパスに変換した後に残らない場合には&lt;b&gt;フィル/ストローク&lt;/b&gt;ダイアログのフィルルールで evenodd を使用します。" /><clipPath
       clipPathUnits="userSpaceOnUse"
       id="clipPath1806"><circle
         style="display:none;fill:#ffaaaa;stroke:none;stroke-width:0.6633;stroke-linejoin:round"
         id="circle1808"
         cx="105"
         cy="148.5"
         r="15"
         d="m 120,148.5 a 15,15 0 0 1 -15,15 15,15 0 0 1 -15,-15 15,15 0 0 1 15,-15 15,15 0 0 1 15,15 z" /><path
         id="lpe_path-effect1810"
         style="fill:#ffaaaa;stroke:none;stroke-width:0.6633;stroke-linejoin:round"
         class="powerclip"
         d="m 82,125.5 h 46 v 46 H 82 Z m 38,23 a 15,15 0 0 0 -15,-15 15,15 0 0 0 -15,15 15,15 0 0 0 15,15 15,15 0 0 0 15,-15 z" /></clipPath><clipPath
       clipPathUnits="userSpaceOnUse"
       id="clipPath1967"><circle
         style="display:none;fill:#e3dbdb;stroke:none;stroke-width:0.928616;stroke-linejoin:round"
         id="circle1969"
         cx="35.586231"
         cy="129.65764"
         r="21"
         d="m 56.586231,129.65764 a 21,21 0 0 1 -21,21 21,21 0 0 1 -21,-21 21,21 0 0 1 21,-21 21,21 0 0 1 21,21 z" /><path
         id="lpe_path-effect1971"
         style="fill:#e3dbdb;stroke:none;stroke-width:0.928616;stroke-linejoin:round"
         class="powerclip"
         d="m 30.586231,107.68708 h 34 v 43.94112 h -34 z m 26,21.97056 a 21,21 0 0 0 -21,-21 21,21 0 0 0 -21,21 21,21 0 0 0 21,21 21,21 0 0 0 21,-21 z" /></clipPath><clipPath
       clipPathUnits="userSpaceOnUse"
       id="clipPath1967-5"><circle
         style="display:none;fill:#e3dbdb;stroke:none;stroke-width:0.928616;stroke-linejoin:round"
         id="circle1969-4"
         cx="35.586231"
         cy="129.65764"
         r="21" /><path
         id="lpe_path-effect1971-7"
         style="fill:#e3dbdb;stroke:none;stroke-width:0.928616;stroke-linejoin:round"
         class="powerclip"
         d="m 30.586231,107.68708 h 34 v 43.94112 h -34 z m 26,21.97056 a 21,21 0 0 0 -21,-21 21,21 0 0 0 -21,21 21,21 0 0 0 21,21 21,21 0 0 0 21,-21 z" /></clipPath><inkscape:path-effect
       effect="powerclip"
       id="path-effect1971-0"
       is_visible="true"
       lpeversion="1"
       inverse="true"
       flatten="false"
       hide_clip="false"
       message="クリップをパスに変換した後に残らない場合には&lt;b&gt;フィル/ストローク&lt;/b&gt;ダイアログのフィルルールで evenodd を使用します。" /><clipPath
       clipPathUnits="userSpaceOnUse"
       id="clipath_lpe_path-effect1971-0"><circle
         style="display:none;fill:#e3dbdb;stroke:none;stroke-width:0.928616;stroke-linejoin:round"
         id="circle2069"
         cx="35.586231"
         cy="129.65764"
         r="21"
         d="m 56.586231,129.65764 a 21,21 0 0 1 -21,21 21,21 0 0 1 -21,-21 21,21 0 0 1 21,-21 21,21 0 0 1 21,21 z" /><path
         id="lpe_path-effect1971-0"
         style="fill:#e3dbdb;stroke:none;stroke-width:0.928616;stroke-linejoin:round"
         class="powerclip"
         d="m 30.586231,107.68708 h 34 v 43.94112 h -34 z m 26,21.97056 a 21,21 0 0 0 -21,-21 21,21 0 0 0 -21,21 21,21 0 0 0 21,21 21,21 0 0 0 21,-21 z" /></clipPath></defs><g
     inkscape:label="Layer 1"
     inkscape:groupmode="layer"
     id="layer1"
     transform="translate(-78.800699,-115.70863)"><g
       id="g2240"
       style="fill:#ff6600"
       transform="translate(0,5.999997)"><path
         style="fill:#ff6600;stroke:none;stroke-width:0.79596;stroke-linejoin:round"
         id="path234"
         clip-path="url(#clipPath1806)"
         inkscape:path-effect="#path-effect1810"
         sodipodi:type="arc"
         sodipodi:cx="105"
         sodipodi:cy="148.5"
         sodipodi:rx="18"
         sodipodi:ry="18"
         d="m 123,148.5 a 18,18 0 0 1 -18,18 18,18 0 0 1 -18,-18 18,18 0 0 1 18,-18 18,18 0 0 1 18,18 z"
         transform="translate(-2.199301,-14.791367)" /><path
         style="fill:#ff6600;stroke:none;stroke-width:1.06128;stroke-linejoin:round"
         id="path234-1-1"
         sodipodi:type="arc"
         sodipodi:cx="35.586231"
         sodipodi:cy="129.65764"
         sodipodi:rx="24"
         sodipodi:ry="24"
         sodipodi:start="5.4977871"
         sodipodi:end="0.78539816"
         sodipodi:arc-type="slice"
         d="m 52.556793,112.68708 a 24,24 0 0 1 7.029438,16.97056 24,24 0 0 1 -7.029437,16.97056 L 35.586231,129.65764 Z"
         clip-path="url(#clipPath1967)"
         inkscape:path-effect="#path-effect1971"
         transform="translate(67.214468,4.0509945)" /><path
         style="fill:#ff6600;stroke:none;stroke-width:1.06128;stroke-linejoin:round"
         id="path234-1-1-8"
         sodipodi:type="arc"
         sodipodi:cx="35.586231"
         sodipodi:cy="129.65764"
         sodipodi:rx="24"
         sodipodi:ry="24"
         sodipodi:start="5.4977871"
         sodipodi:end="0.78539816"
         sodipodi:arc-type="slice"
         d="m 52.556793,112.68708 a 24,24 0 0 1 7.029438,16.97056 24,24 0 0 1 -7.029437,16.97056 L 35.586231,129.65764 Z"
         clip-path="url(#clipath_lpe_path-effect1971-0)"
         inkscape:path-effect="#path-effect1971-0"
         transform="matrix(-1,0,0,1,138.38693,4.050996)" /><g
         id="g2207"
         transform="translate(0,-0.0899815)"
         style="fill:#ff6600"><rect
           style="fill:#ff6600;stroke:none;stroke-width:1.01669;stroke-linejoin:round"
           id="rect2127"
           width="4"
           height="14"
           x="100.8007"
           y="123.19473"
           ry="1.8666667" /><circle
           style="fill:#ff6600;stroke:none;stroke-width:1.21289;stroke-linejoin:round"
           id="path2203"
           cx="102.8007"
           cy="142.4025"
           r="2" /></g></g></g></svg>
