<?xml version="1.0" encoding="UTF-8" standalone="no"?>
<!-- Created with Inkscape (http://www.inkscape.org/) -->

<svg
   width="48mm"
   height="48mm"
   viewBox="0 0 48 48"
   version="1.1"
   id="svg5"
   inkscape:version="1.2.2 (732a01da63, 2022-12-09)"
   sodipodi:docname="brakefailurered.svg"
   xml:space="preserve"
   xmlns:inkscape="http://www.inkscape.org/namespaces/inkscape"
   xmlns:sodipodi="http://sodipodi.sourceforge.net/DTD/sodipodi-0.dtd"
   xmlns="http://www.w3.org/2000/svg"
   xmlns:svg="http://www.w3.org/2000/svg"><sodipodi:namedview
     id="namedview7"
     pagecolor="#ffffff"
     bordercolor="#000000"
     borderopacity="0.25"
     inkscape:showpageshadow="2"
     inkscape:pageopacity="0.0"
     inkscape:pagecheckerboard="0"
     inkscape:deskcolor="#d1d1d1"
     inkscape:document-units="mm"
     showgrid="false"
     inkscape:zoom="2.8079686"
     inkscape:cx="80.485231"
     inkscape:cy="66.596186"
     inkscape:window-width="1920"
     inkscape:window-height="986"
     inkscape:window-x="-11"
     inkscape:window-y="-11"
     inkscape:window-maximized="1"
     inkscape:current-layer="layer1" /><defs
     id="defs2"><inkscape:path-effect
       effect="powerclip"
       id="path-effect1971"
       is_visible="true"
       lpeversion="1"
       inverse="true"
       flatten="false"
       hide_clip="false"
       message="クリップをパスに変換した後に残らない場合には&lt;b&gt;フィル/ストローク&lt;/b&gt;ダイアログのフィルルールで evenodd を使用します。" /><inkscape:path-effect
       effect="powerclip"
       id="path-effect1810"
       is_visible="true"
       lpeversion="1"
       inverse="true"
       flatten="false"
       hide_clip="false"
       message="クリップをパスに変換した後に残らない場合には&lt;b&gt;フィル/ストローク&lt;/b&gt;ダイアログのフィルルールで evenodd を使用します。" /><clipPath
       clipPathUnits="userSpaceOnUse"
       id="clipPath1806"><circle
         style="display:none;fill:#ffaaaa;stroke:none;stroke-width:0.6633;stroke-linejoin:round"
         id="circle1808"
         cx="105"
         cy="148.5"
         r="15" /></clipPath><clipPath
       clipPathUnits="userSpaceOnUse"
       id="clipPath1967"><circle
         style="display:none;fill:#e3dbdb;stroke:none;stroke-width:0.928616;stroke-linejoin:round"
         id="circle1969"
         cx="35.586231"
         cy="129.65764"
         r="21" /></clipPath><clipPath
       clipPathUnits="userSpaceOnUse"
       id="clipPath1967-5"><circle
         style="display:none;fill:#e3dbdb;stroke:none;stroke-width:0.928616;stroke-linejoin:round"
         id="circle1969-4"
         cx="35.586231"
         cy="129.65764"
         r="21" /><path
         id="lpe_path-effect1971-7"
         style="fill:#e3dbdb;stroke:none;stroke-width:0.928616;stroke-linejoin:round"
         class="powerclip"
         d="m 30.586231,107.68708 h 34 v 43.94112 h -34 z m 26,21.97056 a 21,21 0 0 0 -21,-21 21,21 0 0 0 -21,21 21,21 0 0 0 21,21 21,21 0 0 0 21,-21 z" /></clipPath><inkscape:path-effect
       effect="powerclip"
       id="path-effect1971-0"
       is_visible="true"
       lpeversion="1"
       inverse="true"
       flatten="false"
       hide_clip="false"
       message="クリップをパスに変換した後に残らない場合には&lt;b&gt;フィル/ストローク&lt;/b&gt;ダイアログのフィルルールで evenodd を使用します。" /><clipPath
       clipPathUnits="userSpaceOnUse"
       id="clipath_lpe_path-effect1971-0"><circle
         style="display:none;fill:#e3dbdb;stroke:none;stroke-width:0.928616;stroke-linejoin:round"
         id="circle2069"
         cx="35.586231"
         cy="129.65764"
         r="21" /></clipPath></defs><g
     inkscape:label="Layer 1"
     inkscape:groupmode="layer"
     id="layer1"
     transform="translate(-78.800699,-115.70863)"><g
       id="g2207"
       transform="translate(0,5.9100155)"
       style="fill:#ff0000"><rect
         style="fill:#ff0000;stroke:none;stroke-width:1.01669;stroke-linejoin:round"
         id="rect2127"
         width="4"
         height="14"
         x="100.8007"
         y="123.19473"
         ry="1.8666667" /><circle
         style="fill:#ff0000;stroke:none;stroke-width:1.21289;stroke-linejoin:round"
         id="path2203"
         cx="102.8007"
         cy="142.4025"
         r="2" /></g><g
       id="g5492"
       transform="translate(9.7416565)"
       style="fill:#ff0000"><path
         id="path234-0"
         clip-path="none"
         style="font-size:42.6667px;font-family:'Leelawadee UI';-inkscape-font-specification:'Leelawadee UI';white-space:pre;fill:#ff0000;stroke:none;stroke-width:0.79596;stroke-linejoin:round"
         d="M 93.059045,121.7087 A 18,18 0 0 0 75.059106,139.70864 18,18 0 0 0 93.059045,157.70856 18,18 0 0 0 111.05898,139.70864 18,18 0 0 0 93.059045,121.7087 Z m 0,2.99982 a 15,15 0 0 1 15.000115,15.00012 15,15 0 0 1 -15.000115,15.0001 15,15 0 0 1 -15.000122,-15.0001 15,15 0 0 1 15.000122,-15.00012 z" /><path
         id="path234-1-1-9"
         clip-path="none"
         style="font-size:42.6667px;font-family:'Leelawadee UI';-inkscape-font-specification:'Leelawadee UI';white-space:pre;fill:#ff0000;stroke:none;stroke-width:1.06128;stroke-linejoin:round"
         d="m 110.02958,122.73809 -2.12235,2.12236 a 21,21 0 0 1 6.15156,14.84818 21,21 0 0 1 -6.15776,14.84199 l 2.12855,2.12855 a 24,24 0 0 0 7.02955,-16.97054 24,24 0 0 0 -7.02955,-16.97054 z" /><path
         id="path234-1-1-7"
         clip-path="none"
         style="font-size:42.6667px;font-family:'Leelawadee UI';-inkscape-font-specification:'Leelawadee UI';white-space:pre;fill:#ff0000;stroke:none;stroke-width:1.06128;stroke-linejoin:round"
         d="m 76.088495,122.7381 2.12235,2.12236 a 21,21 0 0 0 -6.15156,14.84818 21,21 0 0 0 6.15777,14.84199 l -2.12856,2.12853 a 24,24 0 0 1 -7.02954,-16.97052 24,24 0 0 1 7.02954,-16.97054 z" /></g></g></svg>
