<?xml version="1.0" encoding="UTF-8" standalone="no"?>
<!-- Created with Inkscape (http://www.inkscape.org/) -->

<svg
   width="48mm"
   height="48mm"
   viewBox="0 0 48 48"
   version="1.1"
   id="svg5"
   inkscape:version="1.2.2 (732a01da63, 2022-12-09)"
   sodipodi:docname="doorsajar.svg"
   xml:space="preserve"
   xmlns:inkscape="http://www.inkscape.org/namespaces/inkscape"
   xmlns:sodipodi="http://sodipodi.sourceforge.net/DTD/sodipodi-0.dtd"
   xmlns="http://www.w3.org/2000/svg"
   xmlns:svg="http://www.w3.org/2000/svg"><sodipodi:namedview
     id="namedview7"
     pagecolor="#ffffff"
     bordercolor="#000000"
     borderopacity="0.25"
     inkscape:showpageshadow="2"
     inkscape:pageopacity="0.0"
     inkscape:pagecheckerboard="0"
     inkscape:deskcolor="#d1d1d1"
     inkscape:document-units="mm"
     showgrid="false"
     inkscape:zoom="2.8284271"
     inkscape:cx="49.143921"
     inkscape:cy="93.338095"
     inkscape:window-width="1920"
     inkscape:window-height="986"
     inkscape:window-x="-11"
     inkscape:window-y="1086"
     inkscape:window-maximized="1"
     inkscape:current-layer="layer1" /><defs
     id="defs2"><inkscape:path-effect
       effect="powerclip"
       id="path-effect1971"
       is_visible="true"
       lpeversion="1"
       inverse="true"
       flatten="false"
       hide_clip="false"
       message="クリップをパスに変換した後に残らない場合には&lt;b&gt;フィル/ストローク&lt;/b&gt;ダイアログのフィルルールで evenodd を使用します。" /><inkscape:path-effect
       effect="powerclip"
       id="path-effect1810"
       is_visible="true"
       lpeversion="1"
       inverse="true"
       flatten="false"
       hide_clip="false"
       message="クリップをパスに変換した後に残らない場合には&lt;b&gt;フィル/ストローク&lt;/b&gt;ダイアログのフィルルールで evenodd を使用します。" /><clipPath
       clipPathUnits="userSpaceOnUse"
       id="clipPath1806"><circle
         style="display:none;fill:#ffaaaa;stroke:none;stroke-width:0.6633;stroke-linejoin:round"
         id="circle1808"
         cx="105"
         cy="148.5"
         r="15" /></clipPath><clipPath
       clipPathUnits="userSpaceOnUse"
       id="clipPath1967"><circle
         style="display:none;fill:#e3dbdb;stroke:none;stroke-width:0.928616;stroke-linejoin:round"
         id="circle1969"
         cx="35.586231"
         cy="129.65764"
         r="21" /></clipPath><clipPath
       clipPathUnits="userSpaceOnUse"
       id="clipPath1967-5"><circle
         style="display:none;fill:#e3dbdb;stroke:none;stroke-width:0.928616;stroke-linejoin:round"
         id="circle1969-4"
         cx="35.586231"
         cy="129.65764"
         r="21" /><path
         id="lpe_path-effect1971-7"
         style="fill:#e3dbdb;stroke:none;stroke-width:0.928616;stroke-linejoin:round"
         class="powerclip"
         d="m 30.586231,107.68708 h 34 v 43.94112 h -34 z m 26,21.97056 a 21,21 0 0 0 -21,-21 21,21 0 0 0 -21,21 21,21 0 0 0 21,21 21,21 0 0 0 21,-21 z" /></clipPath><inkscape:path-effect
       effect="powerclip"
       id="path-effect1971-0"
       is_visible="true"
       lpeversion="1"
       inverse="true"
       flatten="false"
       hide_clip="false"
       message="クリップをパスに変換した後に残らない場合には&lt;b&gt;フィル/ストローク&lt;/b&gt;ダイアログのフィルルールで evenodd を使用します。" /><clipPath
       clipPathUnits="userSpaceOnUse"
       id="clipath_lpe_path-effect1971-0"><circle
         style="display:none;fill:#e3dbdb;stroke:none;stroke-width:0.928616;stroke-linejoin:round"
         id="circle2069"
         cx="35.586231"
         cy="129.65764"
         r="21" /></clipPath></defs><g
     inkscape:label="Layer 1"
     inkscape:groupmode="layer"
     id="layer1"
     transform="translate(-78.800699,-115.70863)"><g
       id="g1379"
       transform="translate(-0.369168,6)"><path
         id="rect996"
         style="fill:#ff0000;stroke-width:0.904534;stroke-linejoin:round"
         d="m 103.00801,115.70863 c -2.78722,0 -5.748379,0.62394 -6.979422,1.74873 -0.86738,0.73823 -1.170988,1.54624 -1.170988,2.51509 v 8.52817 h 1.79989 v -8.52817 c 0,-0.45416 0.06723,-0.74478 0.345199,-1.02216 1.654058,-1.06457 2.868836,-1.44177 6.005321,-1.44177 3.13647,0 4.35074,0.37721 6.0048,1.44177 0.27797,0.27738 0.3452,0.568 0.3452,1.02216 v 8.52817 h 1.79989 v -8.52817 c 0,-0.96885 -0.30361,-1.77686 -1.17099,-2.51509 -1.23105,-1.12479 -4.19169,-1.74873 -6.9789,-1.74873 z" /><path
         id="rect996-8"
         style="fill:#ff0000;stroke-width:0.904534;stroke-linejoin:round"
         d="m 94.8576,141.81415 v 6.32571 c 0,1.46581 0.415501,2.03598 1.170988,2.51509 1.580838,0.89992 4.192202,1.05368 6.979422,1.05368 2.78721,0 5.39807,-0.15376 6.9789,-1.05368 0.75549,-0.47911 1.17099,-0.95919 1.17099,-2.51509 v -6.32571 h -1.79989 v 6.32571 c 0,0.45417 0.014,0.83639 -0.3452,1.02216 -1.72901,0.91466 -2.86833,0.74672 -6.0048,0.74672 -3.136485,0 -4.276307,0.16794 -6.005321,-0.74672 -0.359168,-0.18577 -0.345199,-0.56799 -0.345199,-1.02216 v -6.32571 z"
         sodipodi:nodetypes="cscscsccscscscc" /><path
         id="rect1209"
         style="fill:#ff0000;stroke-linejoin:round"
         d="m 102.80078,125.50338 c -1.96585,0 -4.481552,0.96225 -4.549072,1.43453 -0.118412,1.23132 0.859076,2.50266 1.775602,4.02818 0.96189,0 1.76003,0.001 2.77347,0.001 1.01345,0 1.81159,-0.001 2.77348,-0.001 0.91653,-1.52552 1.89349,-2.79686 1.77508,-4.02818 -0.0675,-0.47228 -2.5827,-1.43453 -4.54856,-1.43453 z" /><rect
         style="fill:#ff0000;stroke-width:1;stroke-linejoin:round"
         id="rect1212"
         width="9.3990326"
         height="4.4204249"
         x="98.470352"
         y="141.59698"
         ry="0.83284706" /><path
         id="rect1212-8"
         style="fill:#ff0000;stroke-linejoin:round"
         d="m 93.608971,129.06925 c 0.170689,-0.0457 1.248493,0.51064 1.248493,0.95404 v 5.02112 l -3.933931,6.80782 c -0.311464,0.40746 -1.942375,0.92585 -2.206329,0.70511 l -2.09301,-1.48919 c 1.307823,-4.1885 6.328889,-11.84801 6.984777,-11.9989 z"
         sodipodi:nodetypes="ccccccc" /><path
         id="rect1212-8-2"
         style="fill:#ff0000;stroke-linejoin:round"
         d="m 112.73077,129.06925 c -0.17069,-0.0457 -1.2485,0.51064 -1.2485,0.95404 v 5.02112 l 3.93394,6.80782 c 0.31146,0.40746 1.94237,0.92585 2.20632,0.70511 l 2.09301,-1.48919 c -1.30782,-4.1885 -6.32888,-11.84801 -6.98477,-11.9989 z"
         sodipodi:nodetypes="ccccccc" /></g></g></svg>
