<?xml version="1.0" encoding="UTF-8" standalone="no"?>
<!-- Created with Inkscape (http://www.inkscape.org/) -->

<svg
   width="48mm"
   height="48mm"
   viewBox="0 0 48 48"
   version="1.1"
   id="svg5"
   inkscape:version="1.2.2 (732a01da63, 2022-12-09)"
   sodipodi:docname="ene_engine.svg"
   xml:space="preserve"
   xmlns:inkscape="http://www.inkscape.org/namespaces/inkscape"
   xmlns:sodipodi="http://sodipodi.sourceforge.net/DTD/sodipodi-0.dtd"
   xmlns="http://www.w3.org/2000/svg"
   xmlns:svg="http://www.w3.org/2000/svg"><sodipodi:namedview
     id="namedview7"
     pagecolor="#ffffff"
     bordercolor="#000000"
     borderopacity="0.25"
     inkscape:showpageshadow="2"
     inkscape:pageopacity="0.0"
     inkscape:pagecheckerboard="0"
     inkscape:deskcolor="#d1d1d1"
     inkscape:document-units="mm"
     showgrid="false"
     inkscape:zoom="3.9710673"
     inkscape:cx="76.050084"
     inkscape:cy="94.936694"
     inkscape:window-width="1920"
     inkscape:window-height="986"
     inkscape:window-x="-11"
     inkscape:window-y="469"
     inkscape:window-maximized="1"
     inkscape:current-layer="layer1" /><defs
     id="defs2"><inkscape:path-effect
       effect="powerclip"
       id="path-effect1971"
       is_visible="true"
       lpeversion="1"
       inverse="true"
       flatten="false"
       hide_clip="false"
       message="クリップをパスに変換した後に残らない場合には&lt;b&gt;フィル/ストローク&lt;/b&gt;ダイアログのフィルルールで evenodd を使用します。" /><inkscape:path-effect
       effect="powerclip"
       id="path-effect1810"
       is_visible="true"
       lpeversion="1"
       inverse="true"
       flatten="false"
       hide_clip="false"
       message="クリップをパスに変換した後に残らない場合には&lt;b&gt;フィル/ストローク&lt;/b&gt;ダイアログのフィルルールで evenodd を使用します。" /><clipPath
       clipPathUnits="userSpaceOnUse"
       id="clipPath1806"><circle
         style="display:none;fill:#ffaaaa;stroke:none;stroke-width:0.6633;stroke-linejoin:round"
         id="circle1808"
         cx="105"
         cy="148.5"
         r="15" /></clipPath><clipPath
       clipPathUnits="userSpaceOnUse"
       id="clipPath1967"><circle
         style="display:none;fill:#e3dbdb;stroke:none;stroke-width:0.928616;stroke-linejoin:round"
         id="circle1969"
         cx="35.586231"
         cy="129.65764"
         r="21" /></clipPath><clipPath
       clipPathUnits="userSpaceOnUse"
       id="clipPath1967-5"><circle
         style="display:none;fill:#e3dbdb;stroke:none;stroke-width:0.928616;stroke-linejoin:round"
         id="circle1969-4"
         cx="35.586231"
         cy="129.65764"
         r="21" /><path
         id="lpe_path-effect1971-7"
         style="fill:#e3dbdb;stroke:none;stroke-width:0.928616;stroke-linejoin:round"
         class="powerclip"
         d="m 30.586231,107.68708 h 34 v 43.94112 h -34 z m 26,21.97056 a 21,21 0 0 0 -21,-21 21,21 0 0 0 -21,21 21,21 0 0 0 21,21 21,21 0 0 0 21,-21 z" /></clipPath><inkscape:path-effect
       effect="powerclip"
       id="path-effect1971-0"
       is_visible="true"
       lpeversion="1"
       inverse="true"
       flatten="false"
       hide_clip="false"
       message="クリップをパスに変換した後に残らない場合には&lt;b&gt;フィル/ストローク&lt;/b&gt;ダイアログのフィルルールで evenodd を使用します。" /><clipPath
       clipPathUnits="userSpaceOnUse"
       id="clipath_lpe_path-effect1971-0"><circle
         style="display:none;fill:#e3dbdb;stroke:none;stroke-width:0.928616;stroke-linejoin:round"
         id="circle2069"
         cx="35.586231"
         cy="129.65764"
         r="21" /></clipPath></defs><g
     inkscape:label="Layer 1"
     inkscape:groupmode="layer"
     id="layer1"
     transform="translate(-78.800699,-115.70863)"><path
       id="rect4726"
       style="fill:#ffffff;stroke-width:0.993683;stroke-linejoin:round"
       d="m 91.630973,123.36614 v 2.20235 h 4.715536 v 1.7508 h -4.199346 c -1.516806,0 -2.902666,1.38449 -2.902666,2.90267 0,0.37038 -0.270169,0.70032 -0.700839,0.70032 h -2.180619 c -1.516805,0 -2.902664,1.38449 -2.902664,2.90267 v 4.6545 h -2.457851 v -7.96835 l -2.201826,2.05131 v 6.90029 l 0.707563,0.35326 v 7.90268 l 1.494263,0.931 v -7.96837 h 2.457851 v 6.681 c 0,1.51819 1.385859,2.90266 2.902664,2.90266 h 3.253862 c 0.215334,0 0.390213,0.0828 0.511535,0.21156 l 4.252103,4.71864 c 0.536044,0.53587 1.309978,0.85599 2.068381,0.85599 h 17.93684 c 1.51679,0 2.90265,-1.38447 2.90265,-2.90266 v -2.34923 h 1.7177 v 4.02349 h 2.20183 3.90505 l 1.68771,-5.88447 v -10.58707 l -1.68771,-5.88446 h -3.90505 -2.20183 v 4.02349 h -1.7177 v -2.34923 -1.67426 h -4.93328 c -0.43066,0 -0.70032,-0.32995 -0.70032,-0.70033 v -1.54443 c 0,-1.51818 -1.38585,-2.90267 -2.90266,-2.90267 h -5.60879 v -1.7508 h 4.71554 v -2.20235 z"
       sodipodi:nodetypes="ccccsssssccccccccccsssccsssccccccccccccccssssccccc" /></g></svg>
