<?xml version="1.0" encoding="UTF-8" standalone="no"?>
<!-- Created with Inkscape (http://www.inkscape.org/) -->

<svg
   width="48mm"
   height="48mm"
   viewBox="0 0 48 48"
   version="1.1"
   id="svg2815"
   xml:space="preserve"
   inkscape:version="1.2.2 (732a01da63, 2022-12-09)"
   sodipodi:docname="ene_tire.svg"
   xmlns:inkscape="http://www.inkscape.org/namespaces/inkscape"
   xmlns:sodipodi="http://sodipodi.sourceforge.net/DTD/sodipodi-0.dtd"
   xmlns="http://www.w3.org/2000/svg"
   xmlns:svg="http://www.w3.org/2000/svg"><sodipodi:namedview
     id="namedview2817"
     pagecolor="#ffffff"
     bordercolor="#000000"
     borderopacity="0.25"
     inkscape:showpageshadow="2"
     inkscape:pageopacity="0.0"
     inkscape:pagecheckerboard="0"
     inkscape:deskcolor="#d1d1d1"
     inkscape:document-units="mm"
     showgrid="false"
     inkscape:zoom="2.8079686"
     inkscape:cx="133.19237"
     inkscape:cy="104.70203"
     inkscape:window-width="1920"
     inkscape:window-height="986"
     inkscape:window-x="-11"
     inkscape:window-y="469"
     inkscape:window-maximized="1"
     inkscape:current-layer="layer1" /><defs
     id="defs2812" /><g
     inkscape:label="Layer 1"
     inkscape:groupmode="layer"
     id="layer1"><path
       id="path3000"
       style="fill:#ffffff;stroke-width:0.195319;stroke-linejoin:round"
       d="M -5.0002116 24.000085 A 19 19 0 0 0 -24.000085 5.0002116 A 19 19 0 0 0 -42.999959 24.000085 A 19 19 0 0 0 -24.000085 42.999959 A 19 19 0 0 0 -5.0002116 24.000085 z M -6.6915812 24.000085 A 17.308218 17.308218 0 0 1 -24.000085 41.308073 A 17.308218 17.308218 0 0 1 -41.308073 24.000085 A 17.308218 17.308218 0 0 1 -24.000085 6.6915812 A 17.308218 17.308218 0 0 1 -6.6915812 24.000085 z "
       transform="rotate(-90)" /><path
       id="path3000-3"
       style="fill:#ffffff;stroke-width:0.144149;stroke-linejoin:round"
       d="M -9.9776855 24.000085 A 14.02226 14.02226 0 0 0 -24.000085 9.9776855 A 14.02226 14.02226 0 0 0 -38.022485 24.000085 A 14.02226 14.02226 0 0 0 -24.000085 38.022485 A 14.02226 14.02226 0 0 0 -9.9776855 24.000085 z M -13.320634 21.62297 C -13.315709 22.358937 -13.874278 22.438386 -14.593424 22.438424 L -21.14858 22.438424 C -21.150314 22.438424 -21.152014 22.438449 -21.153748 22.438424 L -21.153231 22.437907 C -21.163035 22.437907 -21.173001 22.437615 -21.182686 22.436873 C -21.311675 22.424692 -21.436454 22.344846 -21.525301 22.234819 C -21.626436 22.104906 -21.677886 21.934413 -21.638989 21.788851 C -21.637701 21.784319 -21.636318 21.779918 -21.634855 21.775415 L -21.635372 21.775932 C -21.6348 21.77407 -21.634424 21.7721 -21.633822 21.770247 L -19.608105 15.536519 L -19.608105 15.536003 C -19.353688 14.753122 -19.063982 14.203876 -18.105355 14.727783 A 10.997536 10.997536 0 0 1 -13.400732 21.0783 C -13.34868 21.289784 -13.321645 21.471834 -13.320634 21.62297 z M -13.320634 26.377201 C -13.321724 26.540134 -13.351374 26.736923 -13.412101 26.970447 A 10.997536 10.997536 0 0 1 -17.915186 33.159733 L -17.879529 33.131828 C -19.022517 33.874093 -19.3361 33.301287 -19.609656 32.459517 L -21.635372 26.224756 L -21.634855 26.224756 C -21.637442 26.216795 -21.640045 26.209031 -21.64209 26.200985 C -21.642305 26.200126 -21.642398 26.199261 -21.642607 26.198401 C -21.642737 26.197871 -21.642995 26.19738 -21.643123 26.196851 C -21.64513 26.188423 -21.646863 26.180102 -21.648291 26.171529 C -21.648469 26.170497 -21.648638 26.169462 -21.648808 26.168429 C -21.660403 26.095223 -21.650724 26.017414 -21.625553 25.942603 C -21.55297 25.736329 -21.352204 25.561747 -21.14858 25.561747 L -14.593941 25.561747 L -14.593424 25.561747 C -13.874278 25.561785 -13.315709 25.641234 -13.320634 26.377201 z M -22.416203 13.850317 C -22.426267 14.063776 -22.493008 14.307625 -22.578467 14.570687 L -24.604183 20.805448 C -24.695183 21.085511 -25.131192 21.247206 -25.385014 21.062797 L -25.376229 21.07985 C -25.380584 21.076967 -25.384922 21.074136 -25.389148 21.071065 L -30.692183 17.218587 L -30.692183 17.21807 C -31.402882 16.701662 -31.848813 16.229708 -30.819824 15.384074 A 10.997536 10.997536 0 0 1 -24.000085 13.002307 A 10.997536 10.997536 0 0 1 -23.337594 13.031246 C -22.602191 13.120935 -22.396136 13.424685 -22.416203 13.850317 z M -22.417236 34.145203 C -22.394943 34.614966 -22.647894 34.936425 -23.583573 34.985461 L -23.546883 34.987012 A 10.997536 10.997536 0 0 1 -24.000085 34.997347 A 10.997536 10.997536 0 0 1 -30.933512 32.528247 C -31.811058 31.743989 -31.374689 31.28836 -30.692183 30.792436 L -25.389148 26.939441 C -25.226117 26.82099 -24.964879 26.84236 -24.78505 26.963212 C -24.783818 26.96404 -24.782658 26.964958 -24.781433 26.965796 C -24.771994 26.972251 -24.762995 26.979463 -24.754045 26.986466 C -24.74681 26.992257 -24.739216 26.99793 -24.73234 27.004036 C -24.729306 27.006732 -24.726516 27.00955 -24.723556 27.012305 C -24.704694 27.029852 -24.687391 27.048297 -24.671879 27.068115 C -24.666067 27.075541 -24.660109 27.083134 -24.654826 27.090853 C -24.650325 27.097428 -24.646001 27.104228 -24.641907 27.111007 C -24.641393 27.111869 -24.640864 27.112725 -24.640356 27.11359 C -24.639444 27.115126 -24.638664 27.116695 -24.637773 27.118241 C -24.633923 27.125012 -24.630374 27.131909 -24.626921 27.138912 C -24.623065 27.146631 -24.619379 27.154744 -24.616069 27.162683 C -24.61237 27.171665 -24.608763 27.180747 -24.605733 27.190072 L -22.580017 33.4238 L -22.580017 33.424316 C -22.494558 33.687378 -22.42737 33.931674 -22.417236 34.145203 z M -27.03866 24.004736 C -27.03865 24.005254 -27.038668 24.005769 -27.03866 24.006287 C -27.041687 24.167035 -27.106228 24.326014 -27.225212 24.412463 L -32.52773 28.265458 L -32.528247 28.265975 C -33.197354 28.752055 -33.75636 29.027435 -34.225301 28.023612 A 10.997536 10.997536 0 0 1 -34.997347 24.000085 A 10.997536 10.997536 0 0 1 -34.317285 20.197734 L -34.32297 20.217371 C -33.834565 18.945035 -33.244337 19.224839 -32.528247 19.745048 L -27.225212 23.598043 C -27.106221 23.684493 -27.041686 23.843986 -27.03866 24.004736 z "
       transform="rotate(-90)" /></g></svg>
