<?xml version="1.0" encoding="UTF-8" standalone="no"?>
<!-- Created with Inkscape (http://www.inkscape.org/) -->

<svg
   width="48mm"
   height="48mm"
   viewBox="0 0 48 48"
   version="1.1"
   id="svg5"
   inkscape:version="1.2.2 (732a01da63, 2022-12-09)"
   sodipodi:docname="enginecoolanttemplow.svg"
   xml:space="preserve"
   xmlns:inkscape="http://www.inkscape.org/namespaces/inkscape"
   xmlns:sodipodi="http://sodipodi.sourceforge.net/DTD/sodipodi-0.dtd"
   xmlns="http://www.w3.org/2000/svg"
   xmlns:svg="http://www.w3.org/2000/svg"><sodipodi:namedview
     id="namedview7"
     pagecolor="#ffffff"
     bordercolor="#000000"
     borderopacity="0.25"
     inkscape:showpageshadow="2"
     inkscape:pageopacity="0.0"
     inkscape:pagecheckerboard="0"
     inkscape:deskcolor="#d1d1d1"
     inkscape:document-units="mm"
     showgrid="false"
     inkscape:zoom="1.9855336"
     inkscape:cx="27.196719"
     inkscape:cy="88.137515"
     inkscape:window-width="1920"
     inkscape:window-height="986"
     inkscape:window-x="-11"
     inkscape:window-y="1086"
     inkscape:window-maximized="1"
     inkscape:current-layer="layer1" /><defs
     id="defs2"><inkscape:path-effect
       effect="powerclip"
       id="path-effect1971"
       is_visible="true"
       lpeversion="1"
       inverse="true"
       flatten="false"
       hide_clip="false"
       message="クリップをパスに変換した後に残らない場合には&lt;b&gt;フィル/ストローク&lt;/b&gt;ダイアログのフィルルールで evenodd を使用します。" /><inkscape:path-effect
       effect="powerclip"
       id="path-effect1810"
       is_visible="true"
       lpeversion="1"
       inverse="true"
       flatten="false"
       hide_clip="false"
       message="クリップをパスに変換した後に残らない場合には&lt;b&gt;フィル/ストローク&lt;/b&gt;ダイアログのフィルルールで evenodd を使用します。" /><clipPath
       clipPathUnits="userSpaceOnUse"
       id="clipPath1806"><circle
         style="display:none;fill:#ffaaaa;stroke:none;stroke-width:0.6633;stroke-linejoin:round"
         id="circle1808"
         cx="105"
         cy="148.5"
         r="15" /></clipPath><clipPath
       clipPathUnits="userSpaceOnUse"
       id="clipPath1967"><circle
         style="display:none;fill:#e3dbdb;stroke:none;stroke-width:0.928616;stroke-linejoin:round"
         id="circle1969"
         cx="35.586231"
         cy="129.65764"
         r="21" /></clipPath><clipPath
       clipPathUnits="userSpaceOnUse"
       id="clipPath1967-5"><circle
         style="display:none;fill:#e3dbdb;stroke:none;stroke-width:0.928616;stroke-linejoin:round"
         id="circle1969-4"
         cx="35.586231"
         cy="129.65764"
         r="21" /><path
         id="lpe_path-effect1971-7"
         style="fill:#e3dbdb;stroke:none;stroke-width:0.928616;stroke-linejoin:round"
         class="powerclip"
         d="m 30.586231,107.68708 h 34 v 43.94112 h -34 z m 26,21.97056 a 21,21 0 0 0 -21,-21 21,21 0 0 0 -21,21 21,21 0 0 0 21,21 21,21 0 0 0 21,-21 z" /></clipPath><inkscape:path-effect
       effect="powerclip"
       id="path-effect1971-0"
       is_visible="true"
       lpeversion="1"
       inverse="true"
       flatten="false"
       hide_clip="false"
       message="クリップをパスに変換した後に残らない場合には&lt;b&gt;フィル/ストローク&lt;/b&gt;ダイアログのフィルルールで evenodd を使用します。" /><clipPath
       clipPathUnits="userSpaceOnUse"
       id="clipath_lpe_path-effect1971-0"><circle
         style="display:none;fill:#e3dbdb;stroke:none;stroke-width:0.928616;stroke-linejoin:round"
         id="circle2069"
         cx="35.586231"
         cy="129.65764"
         r="21" /></clipPath></defs><g
     inkscape:label="Layer 1"
     inkscape:groupmode="layer"
     id="layer1"
     transform="translate(-78.800699,-115.70863)"><g
       id="g2446"
       transform="translate(0,6.0954083)"><circle
         style="fill:#0000ff;stroke-width:1.27778;stroke-linejoin:round"
         id="path314"
         cx="102.8007"
         cy="141.97411"
         r="3.7925918" /><g
         id="g1307"
         transform="translate(0.879322)"
         style="fill:#0000ff"><path
           id="rect435"
           style="fill:#0000ff;stroke-linejoin:round"
           d="m 108.57608,140.81982 c 5.39318,1.11884 4.81332,-1.49695 8.73945,-1.50761 1.6411,0.055 3.04664,0.79306 4.49929,1.50761 v 3 c -1.41802,-0.83968 -3.43246,-1.75151 -4.52285,-1.76674 -3.16442,-0.0707 -3.31361,2.66189 -8.71589,1.46051 z"
           sodipodi:nodetypes="ccccccc" /><path
           id="rect435-4"
           style="fill:#0000ff;stroke-linejoin:round"
           d="m 95.266674,140.96878 c -5.39318,1.11884 -4.81332,-1.49695 -8.73945,-1.50761 -1.6411,0.055 -3.04664,0.79306 -4.49929,1.50761 v 3 c 1.41802,-0.83968 3.43246,-1.75151 4.52285,-1.76674 3.16442,-0.0707 3.31361,2.66189 8.71589,1.46051 z"
           sodipodi:nodetypes="ccccccc" /></g><path
         id="rect620"
         style="fill:#0000ff;fill-opacity:1;stroke-width:1.08641;stroke-linejoin:round"
         d="m 87.667777,147.43589 c -1.076849,0 -1.762632,0.39782 -2.52181,0.83613 v 2.41019 c 0.788967,-0.45551 1.525593,-0.83613 2.52181,-0.83613 1.050087,0 1.707137,0.36548 2.522327,0.83613 0.82996,0.47918 1.353555,0.8356 2.52181,0.8356 1.076848,0 1.763148,-0.39729 2.522326,-0.8356 0.788967,-0.45551 1.52611,-0.83613 2.522327,-0.83613 1.050087,0 1.706617,0.36548 2.521813,0.83613 0.82995,0.47918 1.35406,0.8356 2.52231,0.8356 1.07685,0 1.76264,-0.39729 2.52181,-0.8356 0.78897,-0.45551 1.52611,-0.83613 2.52233,-0.83613 1.05008,0 1.70714,0.36548 2.52233,0.83613 0.82996,0.47918 1.35356,0.8356 2.52181,0.8356 1.07685,0 1.76314,-0.39729 2.52232,-0.8356 0.78897,-0.45551 1.5256,-0.83613 2.52181,-0.83613 1.05009,0 1.70714,0.36548 2.52233,0.83613 v -2.41019 c -0.82996,-0.47918 -1.35408,-0.83613 -2.52233,-0.83613 -1.07684,0 -1.76263,0.39782 -2.52181,0.83613 -0.78895,0.45551 -1.5261,0.8356 -2.52232,0.8356 -1.05009,0 -1.70662,-0.36495 -2.52181,-0.8356 -0.82996,-0.47918 -1.35408,-0.83613 -2.52233,-0.83613 -1.07685,0 -1.76315,0.39782 -2.52233,0.83613 -0.78896,0.45551 -1.52559,0.8356 -2.52181,0.8356 -1.05008,0 -1.70713,-0.36495 -2.52231,-0.8356 -0.829967,-0.47918 -1.353559,-0.83613 -2.521813,-0.83613 -1.076849,0 -1.763149,0.39782 -2.522327,0.83613 -0.788967,0.45551 -1.526109,0.8356 -2.522326,0.8356 -1.050088,0 -1.706621,-0.36495 -2.52181,-0.8356 -0.82996,-0.47918 -1.354072,-0.83613 -2.522327,-0.83613 z" /><rect
         style="fill:#0000ff;fill-opacity:1;stroke-width:1;stroke-linejoin:round"
         id="rect1266"
         width="4.3278761"
         height="25.445786"
         x="100.63676"
         y="115.70863"
         ry="2.163938" /><rect
         style="fill:#0000ff;fill-opacity:1;stroke-width:1;stroke-linejoin:round"
         id="rect1268"
         width="9.5208597"
         height="2.4498732"
         x="103.32986"
         y="121.05595"
         ry="0" /><rect
         style="fill:#0000ff;fill-opacity:1;stroke-width:1;stroke-linejoin:round"
         id="rect1268-9"
         width="9.5208597"
         height="2.4498732"
         x="103.32986"
         y="127.18099"
         ry="0" /><rect
         style="fill:#0000ff;fill-opacity:1;stroke-width:1;stroke-linejoin:round"
         id="rect1268-0"
         width="9.5208597"
         height="2.4498732"
         x="103.32986"
         y="133.30603"
         ry="0" /></g></g></svg>
