<?xml version="1.0" encoding="UTF-8" standalone="no"?>
<!-- Created with Inkscape (http://www.inkscape.org/) -->

<svg
   width="48mm"
   height="48mm"
   viewBox="0 0 48 48"
   version="1.1"
   id="svg5"
   inkscape:version="1.2.2 (732a01da63, 2022-12-09)"
   sodipodi:docname="fuel.svg"
   xml:space="preserve"
   xmlns:inkscape="http://www.inkscape.org/namespaces/inkscape"
   xmlns:sodipodi="http://sodipodi.sourceforge.net/DTD/sodipodi-0.dtd"
   xmlns="http://www.w3.org/2000/svg"
   xmlns:svg="http://www.w3.org/2000/svg"><sodipodi:namedview
     id="namedview7"
     pagecolor="#ffffff"
     bordercolor="#000000"
     borderopacity="0.25"
     inkscape:showpageshadow="2"
     inkscape:pageopacity="0.0"
     inkscape:pagecheckerboard="0"
     inkscape:deskcolor="#d1d1d1"
     inkscape:document-units="mm"
     showgrid="false"
     inkscape:zoom="2.8079686"
     inkscape:cx="114.31752"
     inkscape:cy="101.14073"
     inkscape:window-width="1920"
     inkscape:window-height="986"
     inkscape:window-x="-11"
     inkscape:window-y="1086"
     inkscape:window-maximized="1"
     inkscape:current-layer="g6525" /><defs
     id="defs2"><inkscape:path-effect
       effect="powerclip"
       id="path-effect6392"
       is_visible="true"
       lpeversion="1"
       inverse="true"
       flatten="false"
       hide_clip="false"
       message="クリップをパスに変換した後に残らない場合には&lt;b&gt;フィル/ストローク&lt;/b&gt;ダイアログのフィルルールで evenodd を使用します。" /><inkscape:path-effect
       effect="powerclip"
       id="path-effect1971"
       is_visible="true"
       lpeversion="1"
       inverse="true"
       flatten="false"
       hide_clip="false"
       message="クリップをパスに変換した後に残らない場合には&lt;b&gt;フィル/ストローク&lt;/b&gt;ダイアログのフィルルールで evenodd を使用します。" /><inkscape:path-effect
       effect="powerclip"
       id="path-effect1810"
       is_visible="true"
       lpeversion="1"
       inverse="true"
       flatten="false"
       hide_clip="false"
       message="クリップをパスに変換した後に残らない場合には&lt;b&gt;フィル/ストローク&lt;/b&gt;ダイアログのフィルルールで evenodd を使用します。" /><clipPath
       clipPathUnits="userSpaceOnUse"
       id="clipPath1806"><circle
         style="display:none;fill:#ffaaaa;stroke:none;stroke-width:0.6633;stroke-linejoin:round"
         id="circle1808"
         cx="105"
         cy="148.5"
         r="15" /></clipPath><clipPath
       clipPathUnits="userSpaceOnUse"
       id="clipPath1967"><circle
         style="display:none;fill:#e3dbdb;stroke:none;stroke-width:0.928616;stroke-linejoin:round"
         id="circle1969"
         cx="35.586231"
         cy="129.65764"
         r="21" /></clipPath><clipPath
       clipPathUnits="userSpaceOnUse"
       id="clipPath1967-5"><circle
         style="display:none;fill:#e3dbdb;stroke:none;stroke-width:0.928616;stroke-linejoin:round"
         id="circle1969-4"
         cx="35.586231"
         cy="129.65764"
         r="21" /><path
         id="lpe_path-effect1971-7"
         style="fill:#e3dbdb;stroke:none;stroke-width:0.928616;stroke-linejoin:round"
         class="powerclip"
         d="m 30.586231,107.68708 h 34 v 43.94112 h -34 z m 26,21.97056 a 21,21 0 0 0 -21,-21 21,21 0 0 0 -21,21 21,21 0 0 0 21,21 21,21 0 0 0 21,-21 z" /></clipPath><inkscape:path-effect
       effect="powerclip"
       id="path-effect1971-0"
       is_visible="true"
       lpeversion="1"
       inverse="true"
       flatten="false"
       hide_clip="false"
       message="クリップをパスに変換した後に残らない場合には&lt;b&gt;フィル/ストローク&lt;/b&gt;ダイアログのフィルルールで evenodd を使用します。" /><clipPath
       clipPathUnits="userSpaceOnUse"
       id="clipath_lpe_path-effect1971-0"><circle
         style="display:none;fill:#e3dbdb;stroke:none;stroke-width:0.928616;stroke-linejoin:round"
         id="circle2069"
         cx="35.586231"
         cy="129.65764"
         r="21" /></clipPath><clipPath
       clipPathUnits="userSpaceOnUse"
       id="clipPath6388"><path
         id="path6390"
         style="display:none;fill:#800080;stroke-width:2.33697;stroke-linejoin:round"
         d="m 89.14466,118.53966 h 13.09235 v 10.76167 H 89.14466 Z" /><path
         id="lpe_path-effect6392"
         style="fill:#800080;stroke-width:2.33697;stroke-linejoin:round"
         class="powerclip"
         d="m 81.462891,110.64201 h 28.455889 v 46 H 81.462891 Z m 7.681769,7.89765 v 10.76167 h 13.09235 v -10.76167 z" /></clipPath></defs><g
     inkscape:label="Layer 1"
     inkscape:groupmode="layer"
     id="layer1"
     transform="translate(-78.800699,-115.70863)"><g
       id="g6525"
       transform="translate(1.094873)"><g
         id="g2816"
         transform="translate(0,6)"><path
           id="rect6325-1"
           style="fill:#ff6600;stroke-width:1.43345;stroke-linejoin:round"
           d="m 84.647282,149.30863 h 22.087108 v 2.4 H 84.647282 Z" /><path
           id="rect6325-1-2"
           style="fill:#ff6600;stroke-width:0.924869;stroke-linejoin:round"
           d="m 109.81662,133.5149 v 9.19463 c -0.008,1.51831 1.70896,2.86171 2.90074,2.85591 2.21637,0.003 2.92403,-1.2712 3.33084,-2.47909 0.0103,-2.47856 -0.69574,-4.90715 -1.0436,-7.36072 -0.40906,-2.21292 -0.38504,-5.89165 -0.65251,-7.51325 -0.87468,-4.78182 -2.36567,-7.04843 -7.17139,-9.58156 v -2.75792 c 6.01151,1.47087 10.05599,6.23441 11.58367,10.63219 l -1.97601,1.09297 c 0.20566,2.31767 0.27805,4.66031 0.55033,6.96965 0.39017,2.49203 1.15512,5.07567 1.1705,7.47609 1.7e-4,1.30358 -0.10792,2.67379 -0.79901,3.68587 -0.95641,1.18669 -1.8212,1.8487 -3.44388,2.21087 -1.42794,0.42729 -3.41388,0.10501 -4.87513,-0.92519 -1.16067,-0.86061 -2.22972,-2.57905 -2.24106,-4.30582 v -9.19463 c -0.006,-0.89826 -0.9001,-1.29682 -2.26372,-1.29561 l -0.0113,-2.95585 c 1.1957,-0.002 2.1249,0.19497 3.21233,0.71721 1.0094,0.57201 1.73293,2.07633 1.72918,3.53425 z"
           sodipodi:nodetypes="cccccccccccccccccccccc" /><path
           style="display:inline;fill:#ff6600;stroke-width:1;stroke-linejoin:round"
           id="rect6337"
           width="18.455891"
           height="36"
           x="86.462891"
           y="115.64201"
           ry="2.1987162"
           clip-path="url(#clipPath6388)"
           d="m 88.661607,115.64201 h 14.058463 c 1.21808,0 2.19871,0.98063 2.19871,2.19872 v 31.60257 c 0,1.21809 -0.98063,2.19871 -2.19871,2.19871 H 88.661607 c -1.218089,0 -2.198716,-0.98062 -2.198716,-2.19871 v -31.60257 c 0,-1.21809 0.980627,-2.19872 2.198716,-2.19872 z"
           inkscape:path-effect="#path-effect6392"
           sodipodi:type="rect"
           transform="translate(0,0.06662)" /></g></g></g></svg>
