<?xml version="1.0" encoding="UTF-8" standalone="no"?>
<!-- Created with Inkscape (http://www.inkscape.org/) -->

<svg
   width="48mm"
   height="48mm"
   viewBox="0 0 48 48"
   version="1.1"
   id="svg5"
   inkscape:version="1.2.2 (732a01da63, 2022-12-09)"
   sodipodi:docname="fuellid.svg"
   xml:space="preserve"
   xmlns:inkscape="http://www.inkscape.org/namespaces/inkscape"
   xmlns:sodipodi="http://sodipodi.sourceforge.net/DTD/sodipodi-0.dtd"
   xmlns="http://www.w3.org/2000/svg"
   xmlns:svg="http://www.w3.org/2000/svg"><sodipodi:namedview
     id="namedview7"
     pagecolor="#ffffff"
     bordercolor="#000000"
     borderopacity="0.25"
     inkscape:showpageshadow="2"
     inkscape:pageopacity="0.0"
     inkscape:pagecheckerboard="0"
     inkscape:deskcolor="#d1d1d1"
     inkscape:document-units="mm"
     showgrid="false"
     inkscape:zoom="1.9855336"
     inkscape:cx="47.846079"
     inkscape:cy="124.90345"
     inkscape:window-width="1920"
     inkscape:window-height="986"
     inkscape:window-x="-11"
     inkscape:window-y="-11"
     inkscape:window-maximized="1"
     inkscape:current-layer="g3015" /><defs
     id="defs2"><inkscape:path-effect
       effect="powerclip"
       id="path-effect6392"
       is_visible="true"
       lpeversion="1"
       inverse="true"
       flatten="false"
       hide_clip="false"
       message="クリップをパスに変換した後に残らない場合には&lt;b&gt;フィル/ストローク&lt;/b&gt;ダイアログのフィルルールで evenodd を使用します。" /><inkscape:path-effect
       effect="powerclip"
       id="path-effect1971"
       is_visible="true"
       lpeversion="1"
       inverse="true"
       flatten="false"
       hide_clip="false"
       message="クリップをパスに変換した後に残らない場合には&lt;b&gt;フィル/ストローク&lt;/b&gt;ダイアログのフィルルールで evenodd を使用します。" /><inkscape:path-effect
       effect="powerclip"
       id="path-effect1810"
       is_visible="true"
       lpeversion="1"
       inverse="true"
       flatten="false"
       hide_clip="false"
       message="クリップをパスに変換した後に残らない場合には&lt;b&gt;フィル/ストローク&lt;/b&gt;ダイアログのフィルルールで evenodd を使用します。" /><clipPath
       clipPathUnits="userSpaceOnUse"
       id="clipPath1806"><circle
         style="display:none;fill:#ffaaaa;stroke:none;stroke-width:0.6633;stroke-linejoin:round"
         id="circle1808"
         cx="105"
         cy="148.5"
         r="15" /></clipPath><clipPath
       clipPathUnits="userSpaceOnUse"
       id="clipPath1967"><circle
         style="display:none;fill:#e3dbdb;stroke:none;stroke-width:0.928616;stroke-linejoin:round"
         id="circle1969"
         cx="35.586231"
         cy="129.65764"
         r="21" /></clipPath><clipPath
       clipPathUnits="userSpaceOnUse"
       id="clipPath1967-5"><circle
         style="display:none;fill:#e3dbdb;stroke:none;stroke-width:0.928616;stroke-linejoin:round"
         id="circle1969-4"
         cx="35.586231"
         cy="129.65764"
         r="21" /><path
         id="lpe_path-effect1971-7"
         style="fill:#e3dbdb;stroke:none;stroke-width:0.928616;stroke-linejoin:round"
         class="powerclip"
         d="m 30.586231,107.68708 h 34 v 43.94112 h -34 z m 26,21.97056 a 21,21 0 0 0 -21,-21 21,21 0 0 0 -21,21 21,21 0 0 0 21,21 21,21 0 0 0 21,-21 z" /></clipPath><inkscape:path-effect
       effect="powerclip"
       id="path-effect1971-0"
       is_visible="true"
       lpeversion="1"
       inverse="true"
       flatten="false"
       hide_clip="false"
       message="クリップをパスに変換した後に残らない場合には&lt;b&gt;フィル/ストローク&lt;/b&gt;ダイアログのフィルルールで evenodd を使用します。" /><clipPath
       clipPathUnits="userSpaceOnUse"
       id="clipath_lpe_path-effect1971-0"><circle
         style="display:none;fill:#e3dbdb;stroke:none;stroke-width:0.928616;stroke-linejoin:round"
         id="circle2069"
         cx="35.586231"
         cy="129.65764"
         r="21" /></clipPath></defs><g
     inkscape:label="Layer 1"
     inkscape:groupmode="layer"
     id="layer1"
     transform="translate(-78.800699,-115.70863)"><g
       id="g3015"
       transform="translate(0,6.0000032)"><path
         id="rect6325-1"
         style="fill:#ffffff;stroke-width:1.25864;stroke-linejoin:round"
         d="m 96.844232,147.40619 h 19.393558 v 2.10732 H 96.844232 Z" /><path
         id="rect6325-1-2"
         style="fill:#ffffff;stroke-width:0.81208;stroke-linejoin:round"
         d="m 118.94414,133.53852 v 8.07334 c -0.007,1.33315 1.50055,2.51272 2.54699,2.50762 1.94608,0.003 2.56744,-1.11617 2.92464,-2.17676 0.009,-2.17629 -0.61089,-4.30871 -0.91633,-6.46307 -0.35918,-1.94305 -0.33809,-5.17315 -0.57294,-6.597 -0.76801,-4.19867 -2.07717,-6.18886 -6.29683,-8.41308 v -2.42158 c 5.2784,1.29149 8.82965,5.47411 10.17103,9.33558 l -1.73503,0.95968 c 0.18058,2.03503 0.24414,4.09198 0.48321,6.11969 0.34259,2.18812 1.01425,4.45669 1.02776,6.56437 1.5e-4,1.14461 -0.0948,2.34772 -0.70157,3.23638 -0.83978,1.04197 -1.5991,1.62325 -3.0239,1.94125 -1.2538,0.37518 -2.99755,0.0922 -4.2806,-0.81236 -1.01912,-0.75566 -1.9578,-2.26454 -1.96776,-3.78072 v -8.07334 c -0.005,-0.78871 -0.75658,-1.13867 -1.9539,-1.13761 l -0.0436,-2.59538 c 1.04988,-0.002 1.86576,0.1712 2.82058,0.62975 0.8863,0.50225 1.5216,1.82312 1.51831,3.10324 z"
         sodipodi:nodetypes="cccccccccccccccccccccc" /><path
         id="rect6337"
         clip-path="none"
         style="display:inline;fill:#ffffff;stroke-width:1;stroke-linejoin:round"
         d="M 88.661478 115.64229 C 87.44339 115.64229 86.462703 116.62238 86.462703 117.84047 L 86.462703 149.44315 C 86.462703 150.66124 87.44339 151.64193 88.661478 151.64193 L 102.71986 151.64193 C 103.93794 151.64193 104.91864 150.66124 104.91864 149.44315 L 104.91864 117.84047 C 104.91864 116.62238 103.93794 115.64229 102.71986 115.64229 L 88.661478 115.64229 z M 89.144667 118.53966 L 102.23726 118.53966 L 102.23726 129.30106 L 89.144667 129.30106 L 89.144667 118.53966 z "
         transform="matrix(0.87804879,0,0,0.87804879,22.519788,16.364422)" /><path
         sodipodi:type="star"
         style="fill:#ffffff;stroke-width:1;stroke-linejoin:round"
         id="path1621"
         inkscape:flatsided="true"
         sodipodi:sides="3"
         sodipodi:cx="0"
         sodipodi:cy="41.550541"
         sodipodi:r1="40.733631"
         sodipodi:r2="7.8924093"
         sodipodi:arg1="1.0471976"
         sodipodi:arg2="2.0943951"
         inkscape:rounded="0"
         inkscape:randomized="0"
         d="M 20.366814,76.826901 -40.733631,41.550539 20.366817,6.2741826 Z"
         transform="matrix(0.1763889,0,0,0.22602965,85.985659,124.31698)"
         inkscape:transform-center-x="1.7962399"
         inkscape:transform-center-y="-6.0495198e-06" /></g></g></svg>
