<?xml version="1.0" encoding="UTF-8" standalone="no"?>
<!-- Created with Inkscape (http://www.inkscape.org/) -->

<svg
   width="48mm"
   height="48mm"
   viewBox="0 0 48 48"
   version="1.1"
   id="svg2065"
   xml:space="preserve"
   inkscape:version="1.2.2 (732a01da63, 2022-12-09)"
   sodipodi:docname="idlingstop.svg"
   xmlns:inkscape="http://www.inkscape.org/namespaces/inkscape"
   xmlns:sodipodi="http://sodipodi.sourceforge.net/DTD/sodipodi-0.dtd"
   xmlns="http://www.w3.org/2000/svg"
   xmlns:svg="http://www.w3.org/2000/svg"><sodipodi:namedview
     id="namedview2067"
     pagecolor="#ffffff"
     bordercolor="#000000"
     borderopacity="0.25"
     inkscape:showpageshadow="2"
     inkscape:pageopacity="0.0"
     inkscape:pagecheckerboard="0"
     inkscape:deskcolor="#d1d1d1"
     inkscape:document-units="mm"
     showgrid="false"
     inkscape:zoom="2.8079686"
     inkscape:cx="0.35612934"
     inkscape:cy="109.68784"
     inkscape:window-width="1920"
     inkscape:window-height="986"
     inkscape:window-x="-11"
     inkscape:window-y="1086"
     inkscape:window-maximized="1"
     inkscape:current-layer="layer1" /><defs
     id="defs2062"><rect
       x="56.624565"
       y="73.362644"
       width="75.85555"
       height="86.895559"
       id="rect2439" /></defs><g
     inkscape:label="Layer 1"
     inkscape:groupmode="layer"
     id="layer1"><path
       id="path2250"
       style="fill:#00ff00;stroke-width:1;stroke-linejoin:round"
       d="M 19.645296,7.8199044 A 18,18 0 0 0 8.5710084,16.014992 18,18 0 0 0 14.729326,40.714655 l 1.287657,-2.143018 a 15.5,15.5 0 0 1 -5.303081,-21.269491 15.5,15.5 0 0 1 21.268991,-5.302955 15.5,15.5 0 0 1 5.303078,21.26949 l 2.14302,1.287657 A 18,18 0 0 0 33.270672,9.8566734 18,18 0 0 0 19.645296,7.8199044 Z" /><path
       id="path2382"
       style="fill:#00ff00;stroke-linejoin:round"
       d="m 42.519906,35.290383 -10.04619,5.424272 2.832747,-11.06003 z"
       sodipodi:nodetypes="cccc"
       inkscape:transform-center-x="-0.9899095"
       inkscape:transform-center-y="-0.367769" /><g
       aria-label="A"
       transform="matrix(0.37385364,0,0,0.37385364,-6.7650445,-20.219396)"
       id="text2437"
       style="font-size:74.6667px;font-family:HGPGothicE;-inkscape-font-specification:HGPGothicE;white-space:pre;shape-inside:url(#rect2439);fill:#00ff00;stroke-width:3.77953;stroke-linejoin:round"><path
         d="M 95.416685,148.02998 89.875016,130.23831 H 74.708342 l -5.541669,17.79167 H 61.000002 L 78.208344,88.529955 h 8.16667 l 17.208346,59.500025 z m -7.583337,-25.37501 -5.541669,-20.70834 -5.541669,20.70834 z"
         id="path2493" /></g></g></svg>
