<?xml version="1.0" encoding="UTF-8" standalone="no"?>
<!-- Created with Inkscape (http://www.inkscape.org/) -->

<svg
   width="48mm"
   height="48mm"
   viewBox="0 0 48 48"
   version="1.1"
   id="svg5"
   inkscape:version="1.2.2 (732a01da63, 2022-12-09)"
   sodipodi:docname="obstaclewarningsystemsiderear.svg"
   xml:space="preserve"
   xmlns:inkscape="http://www.inkscape.org/namespaces/inkscape"
   xmlns:sodipodi="http://sodipodi.sourceforge.net/DTD/sodipodi-0.dtd"
   xmlns="http://www.w3.org/2000/svg"
   xmlns:svg="http://www.w3.org/2000/svg"><sodipodi:namedview
     id="namedview7"
     pagecolor="#ffffff"
     bordercolor="#000000"
     borderopacity="0.25"
     inkscape:showpageshadow="2"
     inkscape:pageopacity="0.0"
     inkscape:pagecheckerboard="0"
     inkscape:deskcolor="#d1d1d1"
     inkscape:document-units="mm"
     showgrid="false"
     inkscape:zoom="2"
     inkscape:cx="47.5"
     inkscape:cy="155.5"
     inkscape:window-width="1920"
     inkscape:window-height="986"
     inkscape:window-x="-11"
     inkscape:window-y="1086"
     inkscape:window-maximized="1"
     inkscape:current-layer="layer1" /><defs
     id="defs2"><inkscape:path-effect
       effect="powerclip"
       id="path-effect1971"
       is_visible="true"
       lpeversion="1"
       inverse="true"
       flatten="false"
       hide_clip="false"
       message="クリップをパスに変換した後に残らない場合には&lt;b&gt;フィル/ストローク&lt;/b&gt;ダイアログのフィルルールで evenodd を使用します。" /><inkscape:path-effect
       effect="powerclip"
       id="path-effect1810"
       is_visible="true"
       lpeversion="1"
       inverse="true"
       flatten="false"
       hide_clip="false"
       message="クリップをパスに変換した後に残らない場合には&lt;b&gt;フィル/ストローク&lt;/b&gt;ダイアログのフィルルールで evenodd を使用します。" /><clipPath
       clipPathUnits="userSpaceOnUse"
       id="clipPath1806"><circle
         style="display:none;fill:#ffaaaa;stroke:none;stroke-width:0.6633;stroke-linejoin:round"
         id="circle1808"
         cx="105"
         cy="148.5"
         r="15" /></clipPath><clipPath
       clipPathUnits="userSpaceOnUse"
       id="clipPath1967"><circle
         style="display:none;fill:#e3dbdb;stroke:none;stroke-width:0.928616;stroke-linejoin:round"
         id="circle1969"
         cx="35.586231"
         cy="129.65764"
         r="21" /></clipPath><clipPath
       clipPathUnits="userSpaceOnUse"
       id="clipPath1967-5"><circle
         style="display:none;fill:#e3dbdb;stroke:none;stroke-width:0.928616;stroke-linejoin:round"
         id="circle1969-4"
         cx="35.586231"
         cy="129.65764"
         r="21" /><path
         id="lpe_path-effect1971-7"
         style="fill:#e3dbdb;stroke:none;stroke-width:0.928616;stroke-linejoin:round"
         class="powerclip"
         d="m 30.586231,107.68708 h 34 v 43.94112 h -34 z m 26,21.97056 a 21,21 0 0 0 -21,-21 21,21 0 0 0 -21,21 21,21 0 0 0 21,21 21,21 0 0 0 21,-21 z" /></clipPath><inkscape:path-effect
       effect="powerclip"
       id="path-effect1971-0"
       is_visible="true"
       lpeversion="1"
       inverse="true"
       flatten="false"
       hide_clip="false"
       message="クリップをパスに変換した後に残らない場合には&lt;b&gt;フィル/ストローク&lt;/b&gt;ダイアログのフィルルールで evenodd を使用します。" /><clipPath
       clipPathUnits="userSpaceOnUse"
       id="clipath_lpe_path-effect1971-0"><circle
         style="display:none;fill:#e3dbdb;stroke:none;stroke-width:0.928616;stroke-linejoin:round"
         id="circle2069"
         cx="35.586231"
         cy="129.65764"
         r="21" /></clipPath></defs><g
     inkscape:label="Layer 1"
     inkscape:groupmode="layer"
     id="layer1"
     transform="translate(-78.800699,-115.70863)"><g
       id="g763"
       transform="matrix(0.95156348,0,0,0.95156348,3.2210985,6.8211787)"><g
         id="g1875"
         transform="matrix(0.65251342,-1.0141894e-4,1.0141894e-4,0.65251342,24.216145,41.329254)"
         style="fill:#ff6600"><path
           id="rect996"
           style="fill:#ff6600;stroke-width:0.904534;stroke-linejoin:round"
           d="m 102.63904,121.70878 c -2.787218,0 -5.74838,0.62394 -6.979422,1.74873 -0.867379,0.73823 -1.170988,1.54624 -1.170988,2.51509 v 21.84156 6.32572 c 0,1.4658 0.415502,2.03598 1.170988,2.51509 1.580837,0.89992 4.192204,1.05368 6.979422,1.05368 2.7872,0 5.39807,-0.15376 6.9789,-1.05368 0.75549,-0.47911 1.17099,-0.9592 1.17099,-2.51509 v -6.32572 -21.84156 c 0,-0.96885 -0.30361,-1.77686 -1.17099,-2.51509 -1.23105,-1.12479 -4.1917,-1.74873 -6.9789,-1.74873 z m 0,1.79989 c 3.13646,0 4.35074,0.37721 6.0048,1.44177 0.27797,0.27738 0.3452,0.568 0.3452,1.02216 v 21.84156 6.32572 c 0,0.45417 0.014,0.83639 -0.3452,1.02216 -1.72901,0.91465 -2.86834,0.74672 -6.0048,0.74672 -3.136483,0 -4.276309,0.16793 -6.005321,-0.74672 -0.359168,-0.18577 -0.345199,-0.56799 -0.345199,-1.02216 v -6.32572 -21.84156 c 0,-0.45416 0.06723,-0.74478 0.345199,-1.02216 1.654056,-1.06457 2.868838,-1.44177 6.005321,-1.44177 z" /><path
           id="rect1209"
           style="fill:#ff6600;stroke-linejoin:round"
           d="m 102.43161,131.50338 c -1.96585,0 -4.48155,0.96225 -4.54907,1.43453 -0.118412,1.23132 0.859076,2.50266 1.775602,4.02818 0.961888,0 1.760028,0.001 2.773468,0.001 1.01345,0 1.81159,-0.001 2.77348,-0.001 0.91653,-1.52552 1.89349,-2.79686 1.77508,-4.02818 -0.0675,-0.47228 -2.5827,-1.43453 -4.54856,-1.43453 z" /><rect
           style="fill:#ff6600;stroke-width:1;stroke-linejoin:round"
           id="rect1212"
           width="9.3990326"
           height="4.4204249"
           x="98.101181"
           y="147.59698"
           ry="0.83284706" /></g><path
         id="rect996-3"
         style="fill:#ff6600;stroke-width:0.641742;stroke-linejoin:round"
         d="m 123.41279,158.56614 -0.002,-16.98427 c -1e-4,-0.68738 -0.2156,-1.2606 -0.83106,-1.78426 -0.87352,-0.79787 -2.97409,-1.24022 -4.95154,-1.23991 -1.97745,3.1e-4 -4.07824,0.4433 -4.95151,1.24145 -0.6153,0.52385 -0.83061,1.09714 -0.83051,1.78451 l 0.002,16.98427 m 1.27697,-2e-4 -0.002,-16.98426 c -5e-5,-0.32222 0.0476,-0.52841 0.24479,-0.72524 1.17339,-0.75546 2.0352,-1.02321 4.26045,-1.02356 2.22524,-3.4e-4 3.08678,0.26714 4.2604,1.02224 0.19725,0.19676 0.24498,0.40294 0.24503,0.72516 l 0.002,16.98426"
         sodipodi:nodetypes="cscscsccscscsc" /><path
         id="rect1209-0"
         style="fill:#ff6600;stroke-width:0.709473;stroke-linejoin:round"
         d="m 117.48171,145.50672 c -1.39472,2.2e-4 -3.17943,0.68319 -3.22728,1.01827 -0.0839,0.8736 0.60976,1.77547 1.26018,2.85768 0.68243,-1e-4 1.24869,5.2e-4 1.9677,4.1e-4 0.71902,-1.1e-4 1.28527,-9.1e-4 1.96771,-0.001 0.65008,-1.08241 1.34307,-1.9845 1.25893,-2.85808 -0.048,-0.33506 -1.83252,-1.01747 -3.22724,-1.01726 z" /><path
         id="path558"
         style="fill:#ff6600;stroke-width:1.84984;stroke-linejoin:round"
         d="m 107.75655,136.12289 a 17.149,17.149 0 0 1 -5.02243,12.12639 l 1.41439,1.41438 a 19.149218,19.149218 0 0 0 5.60844,-13.54077 z" /><path
         id="path558-0-5"
         style="fill:#ff6600;stroke-width:1.34754;stroke-linejoin:round"
         d="m 102.55787,136.12289 a 11.95,11.95 0 0 1 -3.500048,8.45013 l 1.413868,1.41387 a 13.949505,13.949505 0 0 0 4.08554,-9.864 z" /></g></g></svg>
