<?xml version="1.0" encoding="UTF-8" standalone="no"?>
<!-- Created with Inkscape (http://www.inkscape.org/) -->

<svg
   width="48mm"
   height="48mm"
   viewBox="0 0 48 48"
   version="1.1"
   id="svg5"
   inkscape:version="1.2.2 (732a01da63, 2022-12-09)"
   sodipodi:docname="obstaclewarningsystemsiderear.svg"
   xml:space="preserve"
   xmlns:inkscape="http://www.inkscape.org/namespaces/inkscape"
   xmlns:sodipodi="http://sodipodi.sourceforge.net/DTD/sodipodi-0.dtd"
   xmlns="http://www.w3.org/2000/svg"
   xmlns:svg="http://www.w3.org/2000/svg"><sodipodi:namedview
     id="namedview7"
     pagecolor="#ffffff"
     bordercolor="#000000"
     borderopacity="0.25"
     inkscape:showpageshadow="2"
     inkscape:pageopacity="0.0"
     inkscape:pagecheckerboard="0"
     inkscape:deskcolor="#d1d1d1"
     inkscape:document-units="mm"
     showgrid="false"
     inkscape:zoom="2.8284271"
     inkscape:cx="58.336309"
     inkscape:cy="96.873629"
     inkscape:window-width="1920"
     inkscape:window-height="986"
     inkscape:window-x="-11"
     inkscape:window-y="469"
     inkscape:window-maximized="1"
     inkscape:current-layer="layer1" /><defs
     id="defs2"><inkscape:path-effect
       effect="powerclip"
       id="path-effect1971"
       is_visible="true"
       lpeversion="1"
       inverse="true"
       flatten="false"
       hide_clip="false"
       message="クリップをパスに変換した後に残らない場合には&lt;b&gt;フィル/ストローク&lt;/b&gt;ダイアログのフィルルールで evenodd を使用します。" /><inkscape:path-effect
       effect="powerclip"
       id="path-effect1810"
       is_visible="true"
       lpeversion="1"
       inverse="true"
       flatten="false"
       hide_clip="false"
       message="クリップをパスに変換した後に残らない場合には&lt;b&gt;フィル/ストローク&lt;/b&gt;ダイアログのフィルルールで evenodd を使用します。" /><clipPath
       clipPathUnits="userSpaceOnUse"
       id="clipPath1806"><circle
         style="display:none;fill:#ffaaaa;stroke:none;stroke-width:0.6633;stroke-linejoin:round"
         id="circle1808"
         cx="105"
         cy="148.5"
         r="15" /></clipPath><clipPath
       clipPathUnits="userSpaceOnUse"
       id="clipPath1967"><circle
         style="display:none;fill:#e3dbdb;stroke:none;stroke-width:0.928616;stroke-linejoin:round"
         id="circle1969"
         cx="35.586231"
         cy="129.65764"
         r="21" /></clipPath><clipPath
       clipPathUnits="userSpaceOnUse"
       id="clipPath1967-5"><circle
         style="display:none;fill:#e3dbdb;stroke:none;stroke-width:0.928616;stroke-linejoin:round"
         id="circle1969-4"
         cx="35.586231"
         cy="129.65764"
         r="21" /><path
         id="lpe_path-effect1971-7"
         style="fill:#e3dbdb;stroke:none;stroke-width:0.928616;stroke-linejoin:round"
         class="powerclip"
         d="m 30.586231,107.68708 h 34 v 43.94112 h -34 z m 26,21.97056 a 21,21 0 0 0 -21,-21 21,21 0 0 0 -21,21 21,21 0 0 0 21,21 21,21 0 0 0 21,-21 z" /></clipPath><inkscape:path-effect
       effect="powerclip"
       id="path-effect1971-0"
       is_visible="true"
       lpeversion="1"
       inverse="true"
       flatten="false"
       hide_clip="false"
       message="クリップをパスに変換した後に残らない場合には&lt;b&gt;フィル/ストローク&lt;/b&gt;ダイアログのフィルルールで evenodd を使用します。" /><clipPath
       clipPathUnits="userSpaceOnUse"
       id="clipath_lpe_path-effect1971-0"><circle
         style="display:none;fill:#e3dbdb;stroke:none;stroke-width:0.928616;stroke-linejoin:round"
         id="circle2069"
         cx="35.586231"
         cy="129.65764"
         r="21" /></clipPath></defs><g
     inkscape:label="Layer 1"
     inkscape:groupmode="layer"
     id="layer1"
     transform="translate(-78.800699,-115.70863)"><g
       id="g499"><path
         id="rect996"
         style="fill:#ff6600;stroke-width:0.561632;stroke-linejoin:round"
         d="m 90.005439,121.70863 c -1.730606,2.7e-4 -3.569155,0.38796 -4.33341,1.08647 -0.538491,0.45846 -0.726927,0.96019 -0.726833,1.56176 l 0.0021,13.56159 6.1e-4,3.92769 c 1.42e-4,0.91013 0.258185,1.26412 0.727319,1.56153 0.981641,0.55861 2.603074,0.65383 4.33368,0.65356 1.730594,-2.6e-4 3.351689,-0.096 4.333153,-0.65491 0.469043,-0.29755 0.726984,-0.59569 0.726834,-1.56175 l -6.11e-4,-3.92769 -0.0021,-13.5616 c -9.3e-5,-0.60156 -0.188685,-1.10323 -0.727319,-1.56152 -0.764477,-0.69828 -2.602829,-1.0854 -4.333423,-1.08513 z m 1.73e-4,1.48137 c 1.947453,-3.1e-4 2.300966,-0.0302 3.328087,0.63063 0.172621,0.1722 0.314601,0.25236 0.314644,0.53436 l 0.0021,13.56159 6.11e-4,3.92769 c 4.4e-5,0.282 -0.09132,0.31998 -0.314355,0.43536 -1.073468,0.56809 -1.380515,0.4637 -3.327968,0.464 -1.947467,3e-4 -2.255387,0.10475 -3.329032,-0.463 -0.223029,-0.11531 -0.314601,-0.15266 -0.314645,-0.43466 l -6.1e-4,-3.92769 -0.0021,-13.5616 c -4.4e-5,-0.28199 0.141787,-0.36279 0.314355,-0.53505 1.026914,-0.66116 1.381446,-0.63133 3.328913,-0.63163 z"
         sodipodi:nodetypes="scccscccscscsccccscscscccc" /><path
         id="rect996-8"
         style="fill:#ff6600;stroke-width:0.610618;stroke-linejoin:round"
         d="m 115.15132,138.40137 c -1.88154,2.9e-4 -3.88045,0.4218 -4.71137,1.18124 -0.58545,0.49844 -0.79032,1.04393 -0.79022,1.69797 l 0.002,16.42805 11.00372,-0.002 -0.002,-16.42806 c -8e-5,-0.65403 -0.20514,-1.19946 -0.79076,-1.69771 -0.83114,-0.75919 -2.82984,-1.18007 -4.71138,-1.17978 z m 2e-4,1.61058 c 2.1173,-3.5e-4 2.50165,-0.0328 3.61835,0.68562 0.18768,0.18723 0.34204,0.27437 0.34209,0.58098 l 0.002,16.42805 -7.92148,0.002 -0.002,-16.42806 c -5e-5,-0.30658 0.15415,-0.39443 0.34177,-0.58171 1.11649,-0.71883 1.50194,-0.6864 3.61927,-0.68672 z"
         sodipodi:nodetypes="cccccscsccccccccc" /><path
         id="rect1209"
         style="fill:#ff6600;stroke-width:0.620908;stroke-linejoin:round"
         d="m 89.877589,127.79019 c -1.220612,1.9e-4 -2.782537,0.59791 -2.824415,0.89115 -0.0734,0.76455 0.533648,1.55384 1.102874,2.50096 0.597244,-9e-5 1.092815,4.5e-4 1.722068,3.6e-4 0.629259,-1e-4 1.124831,-8e-4 1.722076,-8.9e-4 0.568933,-0.9473 1.175413,-1.73678 1.101772,-2.5013 -0.04196,-0.29324 -1.603757,-0.89047 -2.824375,-0.89028 z" /><rect
         style="fill:#ff6600;stroke-width:0.620908;stroke-linejoin:round"
         id="rect1212"
         width="5.8359342"
         height="2.7446771"
         x="87.16893"
         y="137.79681"
         ry="0.51712137"
         transform="rotate(-0.00890538)" /><path
         id="rect1209-0"
         style="fill:#ff6600;stroke-width:0.675109;stroke-linejoin:round"
         d="m 115.0124,145.28006 c -1.32716,2.1e-4 -3.02543,0.6501 -3.07096,0.96895 -0.0798,0.83128 0.58023,1.68947 1.19914,2.71926 0.64938,-9e-5 1.18821,5e-4 1.87239,3.9e-4 0.6842,-1e-4 1.22302,-8.6e-4 1.87241,-9.5e-4 0.61859,-1.02998 1.27801,-1.88838 1.19795,-2.71964 -0.0457,-0.31883 -1.74376,-0.96819 -3.07093,-0.96799 z" /><path
         id="path558"
         style="fill:#ff6600;stroke-width:1.76024;stroke-linejoin:round"
         d="m 105.7583,136.35075 a 16.318362,16.318362 0 0 1 -4.77916,11.53903 l 1.34588,1.34587 a 18.221697,18.221697 0 0 0 5.33678,-12.8849 z" /><path
         id="path558-0-5"
         style="fill:#ff6600;stroke-width:1.28227;stroke-linejoin:round"
         d="m 100.81142,136.35075 a 11.371184,11.371184 0 0 1 -3.330516,8.04083 l 1.345385,1.34539 a 13.27384,13.27384 0 0 0 3.887651,-9.38622 z" /></g></g></svg>
