<?xml version="1.0" encoding="UTF-8" standalone="no"?>
<!-- Created with Inkscape (http://www.inkscape.org/) -->

<svg
   width="48mm"
   height="48mm"
   viewBox="0 0 48 48"
   version="1.1"
   id="svg5"
   inkscape:version="1.2.2 (732a01da63, 2022-12-09)"
   sodipodi:docname="parkingbrake.svg"
   xml:space="preserve"
   xmlns:inkscape="http://www.inkscape.org/namespaces/inkscape"
   xmlns:sodipodi="http://sodipodi.sourceforge.net/DTD/sodipodi-0.dtd"
   xmlns="http://www.w3.org/2000/svg"
   xmlns:svg="http://www.w3.org/2000/svg"><sodipodi:namedview
     id="namedview7"
     pagecolor="#ffffff"
     bordercolor="#000000"
     borderopacity="0.25"
     inkscape:showpageshadow="2"
     inkscape:pageopacity="0.0"
     inkscape:pagecheckerboard="0"
     inkscape:deskcolor="#d1d1d1"
     inkscape:document-units="mm"
     showgrid="false"
     inkscape:zoom="1.4039843"
     inkscape:cx="45.584555"
     inkscape:cy="127.4943"
     inkscape:window-width="1920"
     inkscape:window-height="986"
     inkscape:window-x="-11"
     inkscape:window-y="1086"
     inkscape:window-maximized="1"
     inkscape:current-layer="g2240" /><defs
     id="defs2"><rect
       x="71.811028"
       y="34.544544"
       width="113.31867"
       height="132.53767"
       id="rect2348" /><inkscape:path-effect
       effect="powerclip"
       id="path-effect1971"
       is_visible="true"
       lpeversion="1"
       inverse="true"
       flatten="false"
       hide_clip="false"
       message="クリップをパスに変換した後に残らない場合には&lt;b&gt;フィル/ストローク&lt;/b&gt;ダイアログのフィルルールで evenodd を使用します。" /><inkscape:path-effect
       effect="powerclip"
       id="path-effect1810"
       is_visible="true"
       lpeversion="1"
       inverse="true"
       flatten="false"
       hide_clip="false"
       message="クリップをパスに変換した後に残らない場合には&lt;b&gt;フィル/ストローク&lt;/b&gt;ダイアログのフィルルールで evenodd を使用します。" /><clipPath
       clipPathUnits="userSpaceOnUse"
       id="clipPath1806"><circle
         style="display:none;fill:#ffaaaa;stroke:none;stroke-width:0.6633;stroke-linejoin:round"
         id="circle1808"
         cx="105"
         cy="148.5"
         r="15"
         d="m 120,148.5 a 15,15 0 0 1 -15,15 15,15 0 0 1 -15,-15 15,15 0 0 1 15,-15 15,15 0 0 1 15,15 z" /><path
         id="lpe_path-effect1810"
         style="fill:#ffaaaa;stroke:none;stroke-width:0.6633;stroke-linejoin:round"
         class="powerclip"
         d="m 82,125.5 h 46 v 46 H 82 Z m 38,23 a 15,15 0 0 0 -15,-15 15,15 0 0 0 -15,15 15,15 0 0 0 15,15 15,15 0 0 0 15,-15 z" /></clipPath><clipPath
       clipPathUnits="userSpaceOnUse"
       id="clipPath1967"><circle
         style="display:none;fill:#e3dbdb;stroke:none;stroke-width:0.928616;stroke-linejoin:round"
         id="circle1969"
         cx="35.586231"
         cy="129.65764"
         r="21"
         d="m 56.586231,129.65764 a 21,21 0 0 1 -21,21 21,21 0 0 1 -21,-21 21,21 0 0 1 21,-21 21,21 0 0 1 21,21 z" /><path
         id="lpe_path-effect1971"
         style="fill:#e3dbdb;stroke:none;stroke-width:0.928616;stroke-linejoin:round"
         class="powerclip"
         d="m 30.586231,107.68708 h 34 v 43.94112 h -34 z m 26,21.97056 a 21,21 0 0 0 -21,-21 21,21 0 0 0 -21,21 21,21 0 0 0 21,21 21,21 0 0 0 21,-21 z" /></clipPath><clipPath
       clipPathUnits="userSpaceOnUse"
       id="clipPath1967-5"><circle
         style="display:none;fill:#e3dbdb;stroke:none;stroke-width:0.928616;stroke-linejoin:round"
         id="circle1969-4"
         cx="35.586231"
         cy="129.65764"
         r="21" /><path
         id="lpe_path-effect1971-7"
         style="fill:#e3dbdb;stroke:none;stroke-width:0.928616;stroke-linejoin:round"
         class="powerclip"
         d="m 30.586231,107.68708 h 34 v 43.94112 h -34 z m 26,21.97056 a 21,21 0 0 0 -21,-21 21,21 0 0 0 -21,21 21,21 0 0 0 21,21 21,21 0 0 0 21,-21 z" /></clipPath><inkscape:path-effect
       effect="powerclip"
       id="path-effect1971-0"
       is_visible="true"
       lpeversion="1"
       inverse="true"
       flatten="false"
       hide_clip="false"
       message="クリップをパスに変換した後に残らない場合には&lt;b&gt;フィル/ストローク&lt;/b&gt;ダイアログのフィルルールで evenodd を使用します。" /><clipPath
       clipPathUnits="userSpaceOnUse"
       id="clipath_lpe_path-effect1971-0"><circle
         style="display:none;fill:#e3dbdb;stroke:none;stroke-width:0.928616;stroke-linejoin:round"
         id="circle2069"
         cx="35.586231"
         cy="129.65764"
         r="21"
         d="m 56.586231,129.65764 a 21,21 0 0 1 -21,21 21,21 0 0 1 -21,-21 21,21 0 0 1 21,-21 21,21 0 0 1 21,21 z" /><path
         id="lpe_path-effect1971-0"
         style="fill:#e3dbdb;stroke:none;stroke-width:0.928616;stroke-linejoin:round"
         class="powerclip"
         d="m 30.586231,107.68708 h 34 v 43.94112 h -34 z m 26,21.97056 a 21,21 0 0 0 -21,-21 21,21 0 0 0 -21,21 21,21 0 0 0 21,21 21,21 0 0 0 21,-21 z" /></clipPath></defs><g
     inkscape:label="Layer 1"
     inkscape:groupmode="layer"
     id="layer1"
     transform="translate(-78.800699,-115.70863)"><g
       id="g2240"
       style="fill:#ff0000"><g
         id="g3485"
         transform="translate(0,5.999997)"><path
           style="fill:#ff0000;stroke:none;stroke-width:0.79596;stroke-linejoin:round"
           id="path234"
           clip-path="url(#clipPath1806)"
           inkscape:path-effect="#path-effect1810"
           sodipodi:type="arc"
           sodipodi:cx="105"
           sodipodi:cy="148.5"
           sodipodi:rx="18"
           sodipodi:ry="18"
           d="m 123,148.5 a 18,18 0 0 1 -18,18 18,18 0 0 1 -18,-18 18,18 0 0 1 18,-18 18,18 0 0 1 18,18 z"
           transform="translate(-2.199301,-14.791367)" /><path
           style="fill:#ff0000;stroke:none;stroke-width:1.06128;stroke-linejoin:round"
           id="path234-1-1"
           sodipodi:type="arc"
           sodipodi:cx="35.586231"
           sodipodi:cy="129.65764"
           sodipodi:rx="24"
           sodipodi:ry="24"
           sodipodi:start="5.4977871"
           sodipodi:end="0.78539816"
           sodipodi:arc-type="slice"
           d="m 52.556793,112.68708 a 24,24 0 0 1 7.029438,16.97056 24,24 0 0 1 -7.029437,16.97056 L 35.586231,129.65764 Z"
           clip-path="url(#clipPath1967)"
           inkscape:path-effect="#path-effect1971"
           transform="translate(67.214468,4.0509945)" /><path
           style="fill:#ff0000;stroke:none;stroke-width:1.06128;stroke-linejoin:round"
           id="path234-1-1-8"
           sodipodi:type="arc"
           sodipodi:cx="35.586231"
           sodipodi:cy="129.65764"
           sodipodi:rx="24"
           sodipodi:ry="24"
           sodipodi:start="5.4977871"
           sodipodi:end="0.78539816"
           sodipodi:arc-type="slice"
           d="m 52.556793,112.68708 a 24,24 0 0 1 7.029438,16.97056 24,24 0 0 1 -7.029437,16.97056 L 35.586231,129.65764 Z"
           clip-path="url(#clipath_lpe_path-effect1971-0)"
           inkscape:path-effect="#path-effect1971-0"
           transform="matrix(-1,0,0,1,138.38693,4.050996)" /><g
           aria-label="P"
           transform="matrix(0.33264153,0,0,0.33264153,70.230203,121.37209)"
           id="text2346"
           style="font-size:85.3333px;font-family:'BIZ UDGothic';-inkscape-font-specification:'BIZ UDGothic';white-space:pre;stroke-width:3.77953;stroke-linejoin:round"><path
             d="M 86.643874,44.378251 V 66.961575 H 79.643877 V 7.2115999 h 20.948913 c 6.38888,0 11.33333,1.555555 14.83332,4.6666651 3.52778,3.111109 5.29167,7.499996 5.29167,13.166661 0,5.666664 -1.95833,10.305551 -5.875,13.916661 -3.88889,3.611109 -9.15277,5.416664 -15.79166,5.416664 z m 0,-30.83332 V 38.04492 h 11.865579 c 4.833327,0 8.513887,-1.097222 11.041667,-3.291665 2.55555,-2.222221 3.83333,-5.34722 3.83333,-9.374996 0,-7.888885 -4.66667,-11.833328 -13.999997,-11.833328 z"
             style="-inkscape-font-specification:'Leelawadee UI'"
             id="path2408"
             sodipodi:nodetypes="ccccscscscccscssc" /></g></g></g></g></svg>
