<?xml version="1.0" encoding="UTF-8" standalone="no"?>
<!-- Created with Inkscape (http://www.inkscape.org/) -->

<svg
   width="103.22707mm"
   height="105.63227mm"
   viewBox="0 0 103.22707 105.63227"
   version="1.1"
   id="svg10342"
   inkscape:version="1.2.2 (732a01da63, 2022-12-09)"
   sodipodi:docname="radioFM.svg"
   xmlns:inkscape="http://www.inkscape.org/namespaces/inkscape"
   xmlns:sodipodi="http://sodipodi.sourceforge.net/DTD/sodipodi-0.dtd"
   xmlns="http://www.w3.org/2000/svg"
   xmlns:svg="http://www.w3.org/2000/svg">
  <sodipodi:namedview
     id="namedview10344"
     pagecolor="#ffffff"
     bordercolor="#000000"
     borderopacity="0.25"
     inkscape:showpageshadow="2"
     inkscape:pageopacity="0.0"
     inkscape:pagecheckerboard="0"
     inkscape:deskcolor="#d1d1d1"
     inkscape:document-units="mm"
     showgrid="false"
     inkscape:zoom="1.4142136"
     inkscape:cx="206.12162"
     inkscape:cy="214.96046"
     inkscape:window-width="1920"
     inkscape:window-height="986"
     inkscape:window-x="-11"
     inkscape:window-y="-11"
     inkscape:window-maximized="1"
     inkscape:current-layer="layer1" />
  <defs
     id="defs10339">
    <rect
       x="72.999998"
       y="218.14243"
       width="194.49999"
       height="100.58708"
       id="rect11400" />
  </defs>
  <g
     inkscape:label="Layer 1"
     inkscape:groupmode="layer"
     id="layer1"
     transform="translate(-29.278617,-36.897963)">
    <path
       id="rect11238"
       style="fill:#ffffff;stroke-width:1.05;stroke-linecap:round;stroke-linejoin:round"
       d="M 41.6267 73.380491 C 34.785997 73.380491 29.278617 78.887354 29.278617 85.728057 L 29.278617 121.27472 C 29.278617 128.11543 34.785997 133.62281 41.6267 133.62281 L 120.15782 133.62281 C 126.99853 133.62281 132.50591 128.11543 132.50591 121.27472 L 132.50591 85.728057 C 132.50591 78.887354 126.99853 73.380491 120.15782 73.380491 L 41.6267 73.380491 z M 42.733093 77.380247 L 119.05092 77.380247 C 124.28877 77.380247 128.50564 81.596593 128.50564 86.83445 L 128.50564 120.16833 C 128.50564 125.40619 124.28877 129.62305 119.05092 129.62305 L 42.733093 129.62305 C 37.495236 129.62305 33.27889 125.40619 33.27889 120.16833 L 33.27889 86.83445 C 33.27889 81.596593 37.495236 77.380247 42.733093 77.380247 z " />
    <rect
       style="fill:#ffffff;stroke-width:1.05;stroke-linecap:round;stroke-linejoin:round"
       id="rect11266"
       width="62.113205"
       height="3.9997561"
       x="-7.9226179"
       y="82.781433"
       ry="1.999878"
       transform="rotate(-29.876943)" />
    <path
       id="path11274"
       style="fill:#ffffff;stroke-width:1.05;stroke-linecap:round;stroke-linejoin:round"
       d="m 109.06667,85.77431 a 17.727083,17.727083 0 0 0 -17.727086,17.72708 17.727083,17.727083 0 0 0 17.727086,17.72709 17.727083,17.727083 0 0 0 17.72708,-17.72709 17.727083,17.727083 0 0 0 -17.72708,-17.72708 z m 0,4.000272 A 13.727,13.727 0 0 1 122.79348,103.50139 13.727,13.727 0 0 1 109.06667,117.2282 13.727,13.727 0 0 1 95.339857,103.50139 13.727,13.727 0 0 1 109.06667,89.774582 Z" />
    <rect
       style="fill:#ffffff;stroke-width:1.05;stroke-linecap:round;stroke-linejoin:round"
       id="rect11299-9"
       width="6.9424801"
       height="3.9997559"
       x="29.80765"
       y="92.614937"
       ry="1.9998779" />
    <rect
       style="fill:#ffffff;stroke-width:1.05;stroke-linecap:round;stroke-linejoin:round"
       id="rect11299-9-7"
       width="6.9424801"
       height="3.9997559"
       x="29.80765"
       y="101.50176"
       ry="1.9998779" />
    <rect
       style="fill:#ffffff;stroke-width:1.05;stroke-linecap:round;stroke-linejoin:round"
       id="rect11299-9-5"
       width="6.9424801"
       height="3.9997559"
       x="29.80765"
       y="110.38859"
       ry="1.9998779" />
    <text
       xml:space="preserve"
       transform="matrix(0.26458333,0,0,0.26458333,29.278617,36.897963)"
       id="text11398"
       style="font-size:16px;font-family:'BIZ UDPGothic';-inkscape-font-specification:'BIZ UDPGothic';text-align:center;white-space:pre;shape-inside:url(#rect11400);display:inline;fill:#c8b7b7;stroke-width:3.9685;stroke-linecap:round;stroke-linejoin:round" />
    <g
       aria-label="FM"
       id="text11406"
       style="font-weight:bold;font-size:35.2778px;line-height:0;font-family:'BIZ UDPGothic';-inkscape-font-specification:'BIZ UDPGothic, Bold';text-align:center;text-anchor:middle;fill:#ffffff;stroke-width:1.05;stroke-linecap:round;stroke-linejoin:round">
      <path
         d="m 55.46656,94.165426 q 0,0.516765 -0.05168,0.8785 -0.03445,0.34451 -0.137804,0.551216 -0.08613,0.206706 -0.206706,0.310059 -0.120578,0.103353 -0.275607,0.103353 h -7.286382 v 5.994466 h 6.838519 q 0.155029,0 0.275608,0.0861 0.120578,0.0861 0.206706,0.29283 0.103353,0.20671 0.137803,0.55122 0.05168,0.34451 0.05168,0.86127 0,0.51677 -0.05168,0.86128 -0.03445,0.34451 -0.137803,0.56844 -0.08613,0.22393 -0.206706,0.32728 -0.120579,0.0861 -0.275608,0.0861 h -6.838519 v 8.30269 q 0,0.18948 -0.103353,0.32728 -0.103353,0.13781 -0.378961,0.24116 -0.258382,0.0861 -0.68902,0.1378 -0.430637,0.0517 -1.102431,0.0517 -0.654568,0 -1.102431,-0.0517 -0.430637,-0.0517 -0.68902,-0.1378 -0.258382,-0.10335 -0.37896,-0.24116 -0.103353,-0.1378 -0.103353,-0.32728 V 93.734789 q 0,-0.757921 0.37896,-1.085206 0.396187,-0.34451 0.964628,-0.34451 h 10.490323 q 0.155029,0 0.275607,0.103353 0.120579,0.08613 0.206706,0.310059 0.103353,0.206706 0.137804,0.568441 0.05168,0.361736 0.05168,0.8785 z"
         style="font-family:Calibri;-inkscape-font-specification:'Calibri, Bold';fill:#ffffff"
         id="path11734" />
      <path
         d="m 85.128851,113.97474 q 0,0.17225 -0.103352,0.31006 -0.08613,0.1378 -0.34451,0.22393 -0.241157,0.0861 -0.654569,0.1378 -0.413412,0.0517 -1.050755,0.0517 -0.620117,0 -1.033529,-0.0517 -0.413412,-0.0517 -0.654569,-0.1378 -0.241156,-0.0861 -0.344509,-0.22393 -0.103353,-0.13781 -0.103353,-0.31006 V 95.836299 h -0.03445 l -6.459559,18.121211 q -0.0689,0.22393 -0.223931,0.37896 -0.155029,0.13781 -0.430637,0.22394 -0.258383,0.0861 -0.671794,0.10335 -0.413412,0.0345 -0.999079,0.0345 -0.585666,0 -0.999078,-0.0517 -0.413412,-0.0344 -0.68902,-0.12058 -0.258382,-0.10335 -0.413411,-0.24115 -0.15503,-0.13781 -0.206706,-0.32729 L 63.476412,95.836299 h -0.03445 v 18.138441 q 0,0.17225 -0.103353,0.31006 -0.08613,0.1378 -0.34451,0.22393 -0.258382,0.0861 -0.671794,0.1378 -0.396186,0.0517 -1.033529,0.0517 -0.620118,0 -1.03353,-0.0517 -0.413411,-0.0517 -0.671794,-0.1378 -0.241157,-0.0861 -0.34451,-0.22393 -0.08613,-0.13781 -0.08613,-0.31006 V 94.11375 q 0,-0.8785 0.465088,-1.343588 0.465088,-0.465089 1.240235,-0.465089 h 2.962785 q 0.792372,0 1.360813,0.137804 0.568441,0.120579 0.981853,0.430638 0.413412,0.292833 0.68902,0.792372 0.275607,0.482314 0.482313,1.205784 l 4.823137,13.280849 h 0.0689 l 4.995392,-13.246398 q 0.223931,-0.72347 0.482314,-1.223009 0.275608,-0.49954 0.620117,-0.809598 0.361736,-0.310059 0.844049,-0.430638 0.482314,-0.137804 1.119657,-0.137804 h 3.048912 q 0.465088,0 0.792372,0.120579 0.34451,0.120578 0.551216,0.361735 0.223931,0.223932 0.327284,0.568441 0.120578,0.327285 0.120578,0.757922 z"
         style="font-family:Calibri;-inkscape-font-specification:'Calibri, Bold';fill:#ffffff"
         id="path11736" />
    </g>
  </g>
</svg>
