<?xml version="1.0" encoding="UTF-8" standalone="no"?>
<!-- Created with Inkscape (http://www.inkscape.org/) -->

<svg
   width="48mm"
   height="48mm"
   viewBox="0 0 48 48"
   version="1.1"
   id="svg5"
   inkscape:version="1.2.2 (732a01da63, 2022-12-09)"
   sodipodi:docname="seatbelt.svg"
   xml:space="preserve"
   xmlns:inkscape="http://www.inkscape.org/namespaces/inkscape"
   xmlns:sodipodi="http://sodipodi.sourceforge.net/DTD/sodipodi-0.dtd"
   xmlns="http://www.w3.org/2000/svg"
   xmlns:svg="http://www.w3.org/2000/svg"><sodipodi:namedview
     id="namedview7"
     pagecolor="#ffffff"
     bordercolor="#000000"
     borderopacity="0.25"
     inkscape:showpageshadow="2"
     inkscape:pageopacity="0.0"
     inkscape:pagecheckerboard="0"
     inkscape:deskcolor="#d1d1d1"
     inkscape:document-units="mm"
     showgrid="false"
     inkscape:zoom="2.8079686"
     inkscape:cx="98.291697"
     inkscape:cy="84.758782"
     inkscape:window-width="1920"
     inkscape:window-height="986"
     inkscape:window-x="-11"
     inkscape:window-y="1086"
     inkscape:window-maximized="1"
     inkscape:current-layer="layer1" /><defs
     id="defs2"><rect
       x="9.0655727"
       y="-8.0582867"
       width="168.57222"
       height="126.91802"
       id="rect1914" /><inkscape:path-effect
       effect="powerclip"
       id="path-effect1971"
       is_visible="true"
       lpeversion="1"
       inverse="true"
       flatten="false"
       hide_clip="false"
       message="クリップをパスに変換した後に残らない場合には&lt;b&gt;フィル/ストローク&lt;/b&gt;ダイアログのフィルルールで evenodd を使用します。" /><inkscape:path-effect
       effect="powerclip"
       id="path-effect1810"
       is_visible="true"
       lpeversion="1"
       inverse="true"
       flatten="false"
       hide_clip="false"
       message="クリップをパスに変換した後に残らない場合には&lt;b&gt;フィル/ストローク&lt;/b&gt;ダイアログのフィルルールで evenodd を使用します。" /><clipPath
       clipPathUnits="userSpaceOnUse"
       id="clipPath1806"><circle
         style="display:none;fill:#ffaaaa;stroke:none;stroke-width:0.6633;stroke-linejoin:round"
         id="circle1808"
         cx="105"
         cy="148.5"
         r="15" /></clipPath><clipPath
       clipPathUnits="userSpaceOnUse"
       id="clipPath1967"><circle
         style="display:none;fill:#e3dbdb;stroke:none;stroke-width:0.928616;stroke-linejoin:round"
         id="circle1969"
         cx="35.586231"
         cy="129.65764"
         r="21" /></clipPath><clipPath
       clipPathUnits="userSpaceOnUse"
       id="clipPath1967-5"><circle
         style="display:none;fill:#e3dbdb;stroke:none;stroke-width:0.928616;stroke-linejoin:round"
         id="circle1969-4"
         cx="35.586231"
         cy="129.65764"
         r="21" /><path
         id="lpe_path-effect1971-7"
         style="fill:#e3dbdb;stroke:none;stroke-width:0.928616;stroke-linejoin:round"
         class="powerclip"
         d="m 30.586231,107.68708 h 34 v 43.94112 h -34 z m 26,21.97056 a 21,21 0 0 0 -21,-21 21,21 0 0 0 -21,21 21,21 0 0 0 21,21 21,21 0 0 0 21,-21 z" /></clipPath><inkscape:path-effect
       effect="powerclip"
       id="path-effect1971-0"
       is_visible="true"
       lpeversion="1"
       inverse="true"
       flatten="false"
       hide_clip="false"
       message="クリップをパスに変換した後に残らない場合には&lt;b&gt;フィル/ストローク&lt;/b&gt;ダイアログのフィルルールで evenodd を使用します。" /><clipPath
       clipPathUnits="userSpaceOnUse"
       id="clipath_lpe_path-effect1971-0"><circle
         style="display:none;fill:#e3dbdb;stroke:none;stroke-width:0.928616;stroke-linejoin:round"
         id="circle2069"
         cx="35.586231"
         cy="129.65764"
         r="21" /></clipPath></defs><g
     inkscape:label="Layer 1"
     inkscape:groupmode="layer"
     id="layer1"
     transform="translate(-78.800699,-115.70863)"><path
       id="rect2751"
       style="fill:#ff0000;stroke-linejoin:round"
       d="m 102.80078,121.7087 a 3.3567972,4.1106043 0 0 0 -3.356897,4.11086 3.3567972,4.1106043 0 0 0 1.885157,3.69176 v 1.14154 l -5.091679,2.56522 -2.131653,8.82891 c 0,0.54711 0.0063,1.06243 0.01809,1.55856 l 11.611172,-12.21579 -1.46296,-0.7369 v -1.14154 a 3.3567972,4.1106043 0 0 0 1.88568,-3.69176 3.3567972,4.1106043 0 0 0 -3.35691,-4.11086 z m 2.93419,9.68106 2.01745,1.01648 4.8271,-5.07824 -1.56735,-1.48984 z m 2.01745,1.01648 -11.411706,12.00598 0.1757,1.20768 a 22.953947,22.953947 0 0 1 6.446636,-0.93741 22.953947,22.953947 0 0 1 8.35659,1.58543 c 0.13206,-1.24439 0.1757,-2.61222 0.1757,-4.22093 l -2.13217,-8.82891 z m 3.56722,13.86168 c -0.0705,0.66425 -0.16638,1.29381 -0.29403,1.9048 a 21.069429,21.069429 0 0 1 5.48028,3.32331 l 1.2113,-1.44332 a 22.953947,22.953947 0 0 0 -6.39755,-3.78479 z m -0.29403,1.9048 a 21.069429,21.069429 0 0 0 -16.422775,0.12816 c 1.117711,5.19861 3.389162,7.97546 3.63337,8.99066 l 3.165185,0.41703 c -1.18281,-2.63094 -2.453198,-5.2037 -3.256135,-8.08788 1.636055,-0.68132 3.149785,-0.7506 4.655015,-0.77773 1.50522,0.0271 3.01895,0.0964 4.65501,0.77773 -0.80294,2.88418 -2.07282,5.45694 -3.25561,8.08788 l 3.16466,-0.41703 c 0.24571,-1.02145 2.54438,-3.82514 3.65456,-9.08575 0.002,-0.011 0.004,-0.0221 0.007,-0.0331 z m -16.422775,0.12816 c -0.0069,-0.032 -0.0144,-0.0629 -0.02119,-0.0951 -0.290363,-1.37587 -0.416026,-2.84481 -0.457853,-4.60024 l -6.100403,6.4177 0.7922,0.75344 0.604097,0.71934 a 21.069429,21.069429 0 0 1 0.0832,-0.0661 l 0.08785,0.0832 0.594279,-0.62528 a 21.069429,21.069429 0 0 1 4.417818,-2.58692 z" /></g></svg>
