<?xml version="1.0" encoding="UTF-8" standalone="no"?>
<!-- Created with Inkscape (http://www.inkscape.org/) -->

<svg
   width="48mm"
   height="48mm"
   viewBox="0 0 48 48"
   version="1.1"
   id="svg1367"
   xml:space="preserve"
   inkscape:version="1.2.2 (732a01da63, 2022-12-09)"
   sodipodi:docname="steeringfailure.svg"
   xmlns:inkscape="http://www.inkscape.org/namespaces/inkscape"
   xmlns:sodipodi="http://sodipodi.sourceforge.net/DTD/sodipodi-0.dtd"
   xmlns="http://www.w3.org/2000/svg"
   xmlns:svg="http://www.w3.org/2000/svg"><sodipodi:namedview
     id="namedview1369"
     pagecolor="#ffffff"
     bordercolor="#000000"
     borderopacity="0.25"
     inkscape:showpageshadow="2"
     inkscape:pageopacity="0.0"
     inkscape:pagecheckerboard="0"
     inkscape:deskcolor="#d1d1d1"
     inkscape:document-units="mm"
     showgrid="false"
     inkscape:zoom="1.4039843"
     inkscape:cx="-61.254247"
     inkscape:cy="126.78205"
     inkscape:window-width="1920"
     inkscape:window-height="986"
     inkscape:window-x="-11"
     inkscape:window-y="1086"
     inkscape:window-maximized="1"
     inkscape:current-layer="layer1" /><defs
     id="defs1364" /><g
     inkscape:label="Layer 1"
     inkscape:groupmode="layer"
     id="layer1"><path
       id="path1552"
       style="fill:#ff6600;stroke-width:1.01894;stroke-linejoin:round"
       d="M 18.500163,5.5000958 A 18.5,18.5 0 0 0 0,23.999742 18.5,18.5 0 0 0 18.500163,42.499904 18.5,18.5 0 0 0 36.999809,23.999742 18.5,18.5 0 0 0 18.500163,5.5000958 Z m 0,1.4996501 a 17,17 0 0 1 16.999996,16.9999961 17,17 0 0 1 -0.814421,5.190897 l -11.1988,-4.843632 a 5,5 0 0 0 0.01292,-0.347265 5,5 0 0 0 -4.999695,-4.999695 5,5 0 0 0 -5.000212,4.999695 5,5 0 0 0 0.01292,0.347265 L 2.3145874,29.190639 A 17,17 0 0 1 1.5001668,23.999742 17,17 0 0 1 18.500163,6.9997459 Z M 14.807882,27.369045 a 5,5 0 0 0 3.692281,1.630908 5,5 0 0 0 3.691764,-1.630908 l 11.181747,4.836397 A 17,17 0 0 1 18.500163,40.999738 17,17 0 0 1 3.6261353,32.204926 Z" /><g
       id="g1692"
       transform="translate(0,-0.16132498)"
       style="fill:#ff6600"><rect
         style="fill:#ff6600;stroke-width:1;stroke-linejoin:round"
         id="rect1686"
         width="6"
         height="25.912119"
         x="42"
         y="7.1140547"
         ry="3" /><circle
         style="fill:#ff6600;stroke-width:1;stroke-linejoin:round"
         id="path1688"
         cx="45"
         cy="38.208595"
         r="3" /></g></g></svg>
